<svg width="516" height="516" viewBox="0 0 425 516" fill="none" xmlns="http://www.w3.org/2000/svg">
<path d="M5.32702 259.177C5.91924 157.879 40.1195 99.9723 57.1457 83.6816C69.3457 71.0933 150.681 53.4696 378.421 83.6816C407.44 122.187 418.149 172.787 419.876 193.274C419.383 271.519 418.692 432.896 419.876 452.445C421.061 471.994 413.461 479.349 409.512 480.583C404.824 483.545 392.042 491.987 378.421 502.058C364.8 512.128 328.823 511.684 312.538 510.203C245.667 510.697 100.969 511.388 57.1457 510.203C13.3219 509.018 4.34 486.014 5.32702 474.659C5.08027 445.04 4.73481 360.476 5.32702 259.177Z" fill="#C7A575"/>
<path d="M378.421 502.058C364.8 512.128 328.823 511.684 312.538 510.203C245.667 510.697 100.969 511.388 57.1457 510.203C13.3219 509.018 4.34 486.014 5.32702 474.659C5.08027 445.04 4.73481 360.476 5.32702 259.177C5.91924 157.879 40.1195 99.9723 57.1457 83.6816C69.3457 71.0933 150.681 53.4696 378.421 83.6816M378.421 502.058C392.042 491.987 404.824 483.545 409.512 480.583C413.461 479.349 421.061 471.994 419.876 452.445C418.692 432.896 419.383 271.519 419.876 193.274C418.149 172.787 407.44 122.187 378.421 83.6816M378.421 502.058C345.257 514.498 337.46 492.925 337.707 480.583C337.707 406.781 337.707 251.18 337.707 219.191C337.707 179.205 369.538 101.453 378.421 83.6816" stroke="#AF8E5F" stroke-width="10"/>
<rect x="58" y="172" width="234" height="22" rx="11" fill="#AF8E5F"/>
<mask id="path-4-inside-1" fill="white">
<rect x="51" width="334" height="85" rx="4"/>
</mask>
<rect x="51" width="334" height="85" rx="4" fill="#C7A575" stroke="#AF8E5F" stroke-width="20" mask="url(#path-4-inside-1)"/>
<path d="M121.216 257.663C103.134 241.683 88.6349 256.182 85.8581 258.958C81.6004 263.216 70.8123 275.856 81.6004 292.835C98.6313 319.64 140.16 333.993 158.795 337.819C159.906 336.955 163.053 334.154 166.755 329.859C158.054 296.352 138.708 273.121 121.216 257.663Z" fill="url(#paint0_linear)" stroke="black" stroke-width="10"/>
<path d="M73.0854 322.409C49 323.896 49 344.4 49 348.327C49 354.348 50.309 370.914 69.9438 375.292C100.941 382.203 140.455 362.988 156.337 352.516C156.511 351.119 156.756 346.913 156.337 341.258C126.492 323.718 96.3853 320.971 73.0854 322.409Z" fill="url(#paint1_linear)" stroke="black" stroke-width="10"/>
<path d="M83.0188 402.811C67.0392 420.893 81.5379 435.392 84.3147 438.169C88.5724 442.427 101.212 453.215 118.191 442.427C144.997 425.396 159.349 383.867 163.175 365.232C162.311 364.121 159.51 360.974 155.215 357.272C121.709 365.973 98.4774 385.319 83.0188 402.811Z" fill="url(#paint2_linear)" stroke="black" stroke-width="10"/>
<path d="M147.765 453.21C149.252 477.295 169.756 477.295 173.683 477.295C179.704 477.295 196.27 475.986 200.648 456.351C207.56 425.354 188.344 385.84 177.872 369.958C176.476 369.784 172.269 369.539 166.615 369.958C149.074 399.803 146.327 429.91 147.765 453.21Z" fill="url(#paint3_linear)" stroke="black" stroke-width="10"/>
<path d="M228.167 441.008C246.25 456.988 260.748 442.489 263.525 439.712C267.783 435.455 278.571 422.815 267.783 405.836C250.752 379.03 209.224 364.678 190.588 360.852C189.478 361.716 186.331 364.517 182.628 368.812C191.329 402.318 210.675 425.55 228.167 441.008Z" fill="url(#paint4_linear)" stroke="black" stroke-width="10"/>
<path d="M276.471 376.428C300.557 374.941 300.557 354.437 300.557 350.51C300.557 344.488 299.248 327.923 279.613 323.545C248.616 316.633 209.102 335.849 193.22 346.321C193.045 347.717 192.801 351.923 193.22 357.578C223.065 375.119 253.171 377.866 276.471 376.428Z" fill="url(#paint5_linear)" stroke="black" stroke-width="10"/>
<path d="M266.364 295.86C282.344 277.777 267.845 263.279 265.068 260.502C260.811 256.244 248.171 245.456 231.192 256.244C204.387 273.275 190.034 314.803 186.208 333.439C187.072 334.549 189.873 337.696 194.168 341.399C227.675 332.698 250.906 313.352 266.364 295.86Z" fill="url(#paint6_linear)" stroke="black" stroke-width="10"/>
<path d="M201.104 250.085C199.617 226 179.113 226 175.186 226C169.165 226 153.646 227.408 149.268 247.043C146.82 258.024 147.495 270.335 150.054 282.025C153.736 295.809 158.13 305.266 160.787 311.87C165.498 323.577 163.667 327.839 172.045 333.436C173.441 333.61 176.6 333.756 182.255 333.337C199.795 303.492 202.542 273.385 201.104 250.085Z" fill="url(#paint7_linear)" stroke="black" stroke-width="10"/>
<circle cx="174.663" cy="349.307" r="27.9865" fill="url(#paint8_radial)" stroke="black" stroke-width="10"/>
<defs>
<linearGradient id="paint0_linear" x1="134.729" y1="315.605" x2="128.991" y2="333.561" gradientUnits="userSpaceOnUse">
<stop stop-color="#F5F5F5"/>
<stop offset="1" stop-color="#626262"/>
</linearGradient>
<linearGradient id="paint1_linear" x1="123.612" y1="353.825" x2="132.252" y2="370.58" gradientUnits="userSpaceOnUse">
<stop stop-color="#F5F5F5"/>
<stop offset="1" stop-color="#626262"/>
</linearGradient>
<linearGradient id="paint2_linear" x1="140.961" y1="389.297" x2="158.917" y2="395.036" gradientUnits="userSpaceOnUse">
<stop stop-color="#F5F5F5"/>
<stop offset="1" stop-color="#626262"/>
</linearGradient>
<linearGradient id="paint3_linear" x1="179.181" y1="402.683" x2="195.936" y2="394.043" gradientUnits="userSpaceOnUse">
<stop stop-color="#F5F5F5"/>
<stop offset="1" stop-color="#626262"/>
</linearGradient>
<linearGradient id="paint4_linear" x1="214.654" y1="383.066" x2="220.392" y2="365.109" gradientUnits="userSpaceOnUse">
<stop stop-color="#F5F5F5"/>
<stop offset="1" stop-color="#626262"/>
</linearGradient>
<linearGradient id="paint5_linear" x1="225.944" y1="345.012" x2="217.305" y2="328.257" gradientUnits="userSpaceOnUse">
<stop stop-color="#F5F5F5"/>
<stop offset="1" stop-color="#626262"/>
</linearGradient>
<linearGradient id="paint6_linear" x1="208.422" y1="309.373" x2="190.466" y2="303.635" gradientUnits="userSpaceOnUse">
<stop stop-color="#F5F5F5"/>
<stop offset="1" stop-color="#626262"/>
</linearGradient>
<linearGradient id="paint7_linear" x1="169.689" y1="300.612" x2="152.934" y2="309.252" gradientUnits="userSpaceOnUse">
<stop stop-color="#F5F5F5"/>
<stop offset="1" stop-color="#626262"/>
</linearGradient>
<radialGradient id="paint8_radial" cx="0" cy="0" r="1" gradientUnits="userSpaceOnUse" gradientTransform="translate(174.663 349.307) rotate(90) scale(28.2741)">
<stop offset="0.666667" stop-color="#FF9900"/>
<stop offset="0.895833" stop-color="#FF7A00"/>
</radialGradient>
</defs>
</svg>
