<svg width="516" height="516" viewBox="0 0 447 538" fill="none" xmlns="http://www.w3.org/2000/svg">
<path d="M27.327 259.177C27.9192 157.879 62.1195 99.9723 79.1456 83.6816C91.3456 71.0933 172.681 53.4696 400.421 83.6816C429.44 122.187 440.149 172.787 441.876 193.274C441.383 271.519 440.692 432.896 441.876 452.445C443.061 471.994 435.46 479.349 431.512 480.583C426.824 483.545 414.042 491.987 400.421 502.058C386.8 512.128 350.823 511.684 334.538 510.203C267.667 510.697 122.969 511.388 79.1456 510.203C35.3219 509.018 26.34 486.014 27.327 474.659C27.0802 445.04 26.7348 360.476 27.327 259.177Z" fill="#C7A575"/>
<path d="M400.421 502.058C386.8 512.128 350.823 511.684 334.538 510.203C267.667 510.697 122.969 511.388 79.1456 510.203C35.3219 509.018 26.34 486.014 27.327 474.659C27.0802 445.04 26.7348 360.476 27.327 259.177C27.9192 157.879 62.1195 99.9723 79.1456 83.6816C91.3456 71.0933 172.681 53.4696 400.421 83.6816M400.421 502.058C414.042 491.987 426.824 483.545 431.512 480.583C435.46 479.349 443.061 471.994 441.876 452.445C440.692 432.896 441.383 271.519 441.876 193.274C440.149 172.787 429.44 122.187 400.421 83.6816M400.421 502.058C367.257 514.498 359.46 492.925 359.707 480.583C359.707 406.781 359.707 251.18 359.707 219.191C359.707 179.205 391.538 101.453 400.421 83.6816" stroke="#AF8E5F" stroke-width="10"/>
<rect x="80" y="172" width="234" height="22" rx="11" fill="#AF8E5F"/>
<mask id="path-4-inside-1" fill="white">
<rect x="73" width="334" height="85" rx="4"/>
</mask>
<rect x="73" width="334" height="85" rx="4" fill="#C7A575" stroke="#AF8E5F" stroke-width="20" mask="url(#path-4-inside-1)"/>
<path d="M234.154 269.971C231.092 285.902 226.446 299.83 221.494 309.453C219.007 314.286 216.535 317.85 214.289 320.048C211.951 322.335 210.498 322.556 209.83 322.428C209.161 322.299 207.894 321.556 206.571 318.564C205.3 315.69 204.326 311.464 203.808 306.053C202.777 295.28 203.626 280.623 206.689 264.691C209.751 248.76 214.397 234.833 219.349 225.209C221.836 220.376 224.307 216.813 226.554 214.615C228.892 212.327 230.344 212.106 231.013 212.235C231.682 212.364 232.949 213.107 234.272 216.098C235.543 218.973 236.517 223.199 237.035 228.609C238.066 239.383 237.217 254.04 234.154 269.971Z" fill="#FF1A1A" stroke="black" stroke-width="7"/>
<path d="M252.233 284.507C244.122 298.557 235.171 310.194 227.34 317.665C223.407 321.417 219.905 323.974 217.062 325.316C214.105 326.711 212.66 326.444 212.07 326.104C211.48 325.763 210.527 324.645 210.256 321.386C209.996 318.254 210.46 313.942 211.743 308.66C214.298 298.143 219.901 284.572 228.012 270.523C236.123 256.474 245.075 244.836 252.905 237.365C256.838 233.613 260.34 231.056 263.183 229.715C266.141 228.319 267.586 228.586 268.175 228.927C268.765 229.267 269.719 230.385 269.989 233.644C270.249 236.777 269.785 241.088 268.502 246.37C265.948 256.887 260.345 270.458 252.233 284.507Z" fill="#FF1A1A" stroke="black" stroke-width="7"/>
<path d="M263.816 302.745C252.344 314.216 240.686 323.141 231.189 328.33C226.419 330.936 222.374 332.5 219.281 333.06C216.063 333.643 214.736 333.011 214.255 332.529C213.773 332.048 213.141 330.721 213.724 327.503C214.284 324.41 215.848 320.365 218.454 315.596C223.643 306.098 232.568 294.44 244.039 282.968C255.51 271.497 267.168 262.573 276.666 257.384C281.436 254.777 285.48 253.213 288.573 252.653C291.792 252.071 293.118 252.703 293.6 253.184C294.081 253.666 294.713 254.992 294.131 258.211C293.571 261.304 292.007 265.348 289.401 270.118C284.211 279.616 275.287 291.274 263.816 302.745Z" fill="#FF1A1A" stroke="black" stroke-width="7"/>
<path d="M271.539 320.833C257.49 328.944 243.919 334.547 233.402 337.102C228.12 338.385 223.808 338.849 220.676 338.589C217.417 338.318 216.299 337.365 215.958 336.775C215.618 336.185 215.351 334.74 216.746 331.782C218.088 328.94 220.645 325.438 224.397 321.505C231.868 313.674 243.506 304.723 257.555 296.612C271.604 288.5 285.175 282.897 295.692 280.343C300.974 279.06 305.286 278.596 308.418 278.856C311.677 279.126 312.795 280.08 313.136 280.67C313.476 281.259 313.743 282.704 312.348 285.662C311.006 288.505 308.449 292.007 304.697 295.94C297.226 303.77 285.588 312.722 271.539 320.833Z" fill="#FF1A1A" stroke="black" stroke-width="7"/>
<path d="M275.732 341.39C260.062 345.589 245.504 347.489 234.684 347.234C229.25 347.106 224.965 346.439 222.007 345.377C218.928 344.272 218.096 343.062 217.919 342.404C217.743 341.746 217.859 340.281 219.973 337.785C222.004 335.387 225.381 332.666 230.023 329.838C239.266 324.208 252.823 318.574 268.493 314.375C284.163 310.176 298.722 308.277 309.542 308.531C314.976 308.659 319.26 309.327 322.219 310.389C325.297 311.493 326.13 312.704 326.306 313.362C326.483 314.019 326.367 315.484 324.253 317.98C322.222 320.379 318.845 323.099 314.203 325.927C304.96 331.558 291.402 337.192 275.732 341.39Z" fill="#FF1A1A" stroke="black" stroke-width="7"/>
<path d="M274.387 361.474C258.164 361.474 243.61 359.541 233.225 356.495C228.009 354.965 224.043 353.211 221.46 351.42C218.773 349.556 218.282 348.171 218.282 347.49C218.282 346.809 218.773 345.424 221.46 343.561C224.043 341.769 228.009 340.015 233.225 338.485C243.61 335.439 258.164 333.506 274.387 333.506C290.61 333.506 305.164 335.439 315.549 338.485C320.765 340.015 324.731 341.769 327.314 343.561C330.001 345.424 330.492 346.809 330.492 347.49C330.492 348.171 330.001 349.556 327.314 351.42C324.731 353.211 320.765 354.965 315.549 356.495C305.164 359.541 290.61 361.474 274.387 361.474Z" fill="#FF1A1A" stroke="black" stroke-width="7"/>
<path d="M267.797 379.775C252.127 375.576 238.569 369.942 229.326 364.311C224.684 361.483 221.307 358.763 219.276 356.364C217.162 353.868 217.046 352.403 217.223 351.746C217.399 351.088 218.232 349.877 221.31 348.773C224.269 347.711 228.553 347.043 233.987 346.915C244.807 346.661 259.366 348.56 275.036 352.759C290.706 356.958 304.263 362.592 313.506 368.222C318.148 371.05 321.525 373.771 323.556 376.17C325.67 378.665 325.786 380.13 325.61 380.788C325.433 381.446 324.601 382.656 321.522 383.761C318.564 384.823 314.279 385.49 308.845 385.618C298.025 385.873 283.467 383.973 267.797 379.775Z" fill="#FF1A1A" stroke="black" stroke-width="7"/>
<path d="M255.159 403.317C241.11 395.205 229.472 386.254 222.002 378.423C218.25 374.49 215.692 370.989 214.351 368.146C212.955 365.188 213.223 363.743 213.563 363.153C213.903 362.564 215.021 361.61 218.281 361.34C221.413 361.08 225.725 361.544 231.006 362.827C241.524 365.381 255.094 370.984 269.144 379.095C283.193 387.207 294.831 396.158 302.301 403.989C306.053 407.922 308.611 411.424 309.952 414.266C311.348 417.224 311.081 418.669 310.74 419.259C310.4 419.848 309.282 420.802 306.022 421.072C302.89 421.332 298.578 420.868 293.297 419.585C282.779 417.031 269.209 411.428 255.159 403.317Z" fill="#FF1A1A" stroke="black" stroke-width="7"/>
<path d="M236.37 415.944C224.899 404.473 215.975 392.815 210.785 383.317C208.179 378.547 206.615 374.503 206.055 371.41C205.473 368.191 206.105 366.865 206.586 366.383C207.068 365.902 208.394 365.27 211.613 365.852C214.706 366.412 218.75 367.976 223.52 370.582C233.018 375.772 244.676 384.696 256.147 396.167C267.618 407.639 276.543 419.297 281.732 428.794C284.338 433.564 285.902 437.609 286.462 440.702C287.045 443.92 286.413 445.247 285.931 445.728C285.45 446.21 284.123 446.842 280.905 446.259C277.812 445.699 273.767 444.135 268.997 441.529C259.5 436.34 247.842 427.415 236.37 415.944Z" fill="#FF1A1A" stroke="black" stroke-width="7"/>
<path d="M215.756 422.411C207.645 408.362 202.042 394.791 199.488 384.274C198.205 378.992 197.741 374.681 198 371.548C198.271 368.289 199.225 367.171 199.814 366.831C200.404 366.49 201.849 366.223 204.807 367.619C207.649 368.96 211.151 371.518 215.084 375.27C222.915 382.74 231.866 394.378 239.978 408.427C248.089 422.477 253.692 436.047 256.246 446.564C257.529 451.846 257.993 456.158 257.733 459.29C257.463 462.55 256.509 463.667 255.92 464.008C255.33 464.348 253.885 464.615 250.927 463.22C248.084 461.879 244.582 459.321 240.65 455.569C232.819 448.098 223.868 436.461 215.756 422.411Z" fill="#FF1A1A" stroke="black" stroke-width="7"/>
<path d="M196.286 425.19C192.087 409.52 190.187 394.962 190.442 384.142C190.57 378.708 191.238 374.423 192.299 371.465C193.404 368.386 194.615 367.554 195.272 367.377C195.93 367.201 197.395 367.317 199.891 369.431C202.289 371.462 205.01 374.839 207.838 379.481C213.468 388.724 219.102 402.281 223.301 417.951C227.5 433.621 229.399 448.18 229.145 459C229.017 464.434 228.349 468.719 227.288 471.677C226.183 474.755 224.972 475.588 224.315 475.764C223.657 475.941 222.192 475.825 219.696 473.711C217.297 471.68 214.577 468.303 211.749 463.661C206.119 454.418 200.484 440.86 196.286 425.19Z" fill="#FF1A1A" stroke="black" stroke-width="7"/>
<path d="M175.343 423.92C175.343 407.697 177.277 393.143 180.323 382.758C181.853 377.542 183.607 373.576 185.398 370.993C187.262 368.306 188.647 367.814 189.328 367.814C190.009 367.814 191.393 368.306 193.257 370.993C195.048 373.576 196.802 377.542 198.332 382.758C201.379 393.143 203.312 407.697 203.312 423.92C203.312 440.143 201.379 454.697 198.332 465.082C196.802 470.298 195.048 474.263 193.257 476.846C191.393 479.534 190.009 480.025 189.328 480.025C188.647 480.025 187.262 479.534 185.398 476.846C183.607 474.263 181.853 470.298 180.323 465.082C177.277 454.697 175.343 440.143 175.343 423.92Z" fill="#FF1A1A" stroke="black" stroke-width="7"/>
<path d="M156.292 417.422C160.491 401.752 166.125 388.194 171.755 378.952C174.583 374.31 177.304 370.933 179.702 368.901C182.198 366.788 183.663 366.672 184.321 366.848C184.979 367.024 186.189 367.857 187.294 370.936C188.356 373.894 189.023 378.179 189.151 383.613C189.406 394.433 187.506 408.991 183.307 424.661C179.109 440.331 173.475 453.889 167.844 463.132C165.016 467.774 162.296 471.151 159.897 473.182C157.401 475.295 155.936 475.411 155.279 475.235C154.621 475.059 153.41 474.226 152.306 471.148C151.244 468.189 150.576 463.905 150.448 458.471C150.194 447.651 152.093 433.092 156.292 417.422Z" fill="#FF1A1A" stroke="black" stroke-width="7"/>
<path d="M139.891 402.515C148.003 388.465 156.954 376.828 164.785 369.357C168.718 365.605 172.219 363.047 175.062 361.706C178.02 360.311 179.465 360.578 180.055 360.918C180.644 361.259 181.598 362.377 181.868 365.636C182.128 368.768 181.664 373.08 180.381 378.362C177.827 388.879 172.224 402.45 164.113 416.499C156.001 430.548 147.05 442.186 139.219 449.657C135.286 453.409 131.785 455.966 128.942 457.307C125.984 458.703 124.539 458.436 123.949 458.095C123.36 457.755 122.406 456.637 122.136 453.378C121.876 450.245 122.34 445.934 123.623 440.652C126.177 430.135 131.78 416.564 139.891 402.515Z" fill="#FF1A1A" stroke="black" stroke-width="7"/>
<path d="M120.422 384.215C131.893 372.744 143.552 363.819 153.049 358.63C157.819 356.024 161.864 354.459 164.957 353.9C168.175 353.317 169.501 353.949 169.983 354.431C170.464 354.912 171.096 356.239 170.514 359.457C169.954 362.55 168.39 366.595 165.784 371.364C160.594 380.862 151.67 392.52 140.199 403.991C128.728 415.463 117.069 424.387 107.572 429.576C102.802 432.183 98.7573 433.747 95.6643 434.307C92.446 434.889 91.1195 434.257 90.638 433.776C90.1566 433.294 89.5246 431.968 90.107 428.749C90.6668 425.656 92.2309 421.612 94.8371 416.842C100.027 407.344 108.951 395.686 120.422 384.215Z" fill="#FF1A1A" stroke="black" stroke-width="7"/>
<path d="M113.088 362.798C127.137 354.686 140.708 349.084 151.225 346.529C156.507 345.246 160.819 344.782 163.951 345.042C167.21 345.312 168.328 346.266 168.669 346.856C169.009 347.446 169.276 348.89 167.881 351.848C166.54 354.691 163.982 358.193 160.23 362.126C152.759 369.957 141.122 378.908 127.072 387.019C113.023 395.131 99.4522 400.733 88.935 403.288C83.6532 404.571 79.3416 405.035 76.2092 404.775C72.9498 404.505 71.832 403.551 71.4916 402.961C71.1511 402.371 70.884 400.927 72.2796 397.969C73.6207 395.126 76.1784 391.624 79.9303 387.691C87.4011 379.86 99.0387 370.909 113.088 362.798Z" fill="#FF1A1A" stroke="black" stroke-width="7"/>
<path d="M112.176 341.212C127.846 337.013 142.405 335.114 153.225 335.368C158.659 335.496 162.943 336.164 165.902 337.226C168.98 338.331 169.813 339.541 169.989 340.199C170.165 340.856 170.049 342.321 167.936 344.817C165.905 347.216 162.528 349.936 157.886 352.764C148.643 358.395 135.085 364.029 119.415 368.228C103.745 372.426 89.1867 374.326 78.3668 374.071C72.9329 373.943 68.6481 373.276 65.6897 372.214C62.6113 371.109 61.7785 369.899 61.6023 369.241C61.426 368.583 61.542 367.118 63.6556 364.623C65.6868 362.224 69.0636 359.503 73.7056 356.676C82.9486 351.045 96.5064 345.411 112.176 341.212Z" fill="#FF1A1A" stroke="black" stroke-width="7"/>
<path d="M114.532 321.686C130.754 321.686 145.308 323.619 155.694 326.665C160.909 328.195 164.875 329.949 167.458 331.74C170.146 333.604 170.637 334.989 170.637 335.67C170.637 336.351 170.146 337.736 167.458 339.6C164.875 341.391 160.909 343.145 155.694 344.675C145.308 347.721 130.754 349.654 114.532 349.654C98.3087 349.654 83.7547 347.721 73.3694 344.675C68.1538 343.145 64.1878 341.391 61.605 339.6C58.9174 337.736 58.4263 336.351 58.4263 335.67C58.4263 334.989 58.9174 333.604 61.605 331.74C64.1878 329.949 68.1538 328.195 73.3694 326.665C83.7547 323.619 98.3087 321.686 114.532 321.686Z" fill="#FF1A1A" stroke="black" stroke-width="7"/>
<path d="M121.179 301.786C136.849 305.985 150.407 311.619 159.65 317.249C164.292 320.077 167.669 322.798 169.7 325.196C171.813 327.692 171.929 329.157 171.753 329.815C171.577 330.472 170.744 331.683 167.666 332.788C164.707 333.85 160.422 334.517 154.989 334.645C144.169 334.9 129.61 333 113.94 328.801C98.2702 324.603 84.7125 318.969 75.4695 313.338C70.8275 310.51 67.4506 307.79 65.4194 305.391C63.3059 302.895 63.1899 301.43 63.3661 300.773C63.5423 300.115 64.3752 298.904 67.4535 297.8C70.412 296.738 74.6967 296.07 80.1307 295.942C90.9505 295.688 105.509 297.587 121.179 301.786Z" fill="#FF1A1A" stroke="black" stroke-width="7"/>
<path d="M132.386 285.065C146.435 293.177 158.073 302.128 165.544 309.959C169.296 313.892 171.853 317.394 173.194 320.236C174.59 323.194 174.323 324.639 173.982 325.229C173.642 325.818 172.524 326.772 169.265 327.043C166.132 327.302 161.821 326.838 156.539 325.556C146.022 323.001 132.451 317.398 118.402 309.287C104.352 301.175 92.7148 292.224 85.244 284.393C81.4921 280.461 78.9344 276.959 77.5933 274.116C76.1977 271.158 76.4648 269.713 76.8052 269.124C77.1457 268.534 78.2635 267.58 81.5229 267.31C84.6553 267.05 88.9669 267.514 94.2487 268.797C104.766 271.351 118.337 276.954 132.386 285.065Z" fill="#FF1A1A" stroke="black" stroke-width="7"/>
<path d="M152.023 271.312C163.494 282.784 172.418 294.442 177.608 303.939C180.214 308.709 181.778 312.754 182.338 315.847C182.92 319.065 182.288 320.392 181.807 320.873C181.325 321.355 179.999 321.986 176.78 321.404C173.688 320.844 169.643 319.28 164.873 316.674C155.375 311.485 143.717 302.56 132.246 291.089C120.775 279.618 111.851 267.96 106.661 258.462C104.055 253.692 102.491 249.648 101.931 246.555C101.349 243.336 101.981 242.01 102.462 241.528C102.943 241.047 104.27 240.415 107.488 240.997C110.581 241.557 114.626 243.121 119.396 245.727C128.893 250.917 140.551 259.841 152.023 271.312Z" fill="#FF1A1A" stroke="black" stroke-width="7"/>
<path d="M176.468 263.105C184.58 277.155 190.183 290.726 192.737 301.243C194.02 306.525 194.484 310.836 194.224 313.969C193.954 317.228 193 318.346 192.41 318.686C191.821 319.027 190.376 319.294 187.418 317.898C184.575 316.557 181.073 313.999 177.141 310.247C169.31 302.777 160.358 291.139 152.247 277.09C144.136 263.04 138.533 249.47 135.978 238.952C134.696 233.671 134.231 229.359 134.491 226.227C134.762 222.967 135.715 221.849 136.305 221.509C136.895 221.169 138.34 220.901 141.298 222.297C144.14 223.638 147.642 226.196 151.575 229.948C159.406 237.419 168.357 249.056 176.468 263.105Z" fill="#FF1A1A" stroke="black" stroke-width="7"/>
<path d="M191.728 261.858C195.926 277.528 197.826 292.086 197.571 302.906C197.444 308.34 196.776 312.625 195.714 315.584C194.609 318.662 193.399 319.495 192.741 319.671C192.083 319.847 190.619 319.731 188.123 317.618C185.724 315.586 183.003 312.21 180.176 307.568C174.545 298.325 168.911 284.767 164.712 269.097C160.514 253.427 158.614 238.868 158.869 228.048C158.996 222.615 159.664 218.33 160.726 215.371C161.831 212.293 163.041 211.46 163.699 211.284C164.357 211.108 165.821 211.224 168.317 213.337C170.716 215.368 173.437 218.745 176.264 223.387C181.895 232.63 187.529 246.188 191.728 261.858Z" fill="#FF1A1A" stroke="black" stroke-width="7"/>
<path d="M209.162 263.513C209.162 279.736 207.229 294.29 204.183 304.675C202.653 309.891 200.899 313.857 199.108 316.44C197.244 319.127 195.859 319.618 195.178 319.618C194.497 319.618 193.112 319.127 191.249 316.44C189.457 313.857 187.703 309.891 186.174 304.675C183.127 294.29 181.194 279.736 181.194 263.513C181.194 247.29 183.127 232.736 186.174 222.351C187.703 217.135 189.457 213.169 191.249 210.586C193.112 207.899 194.497 207.408 195.178 207.408C195.859 207.408 197.244 207.899 199.108 210.586C200.899 213.169 202.653 217.135 204.183 222.351C207.229 232.736 209.162 247.29 209.162 263.513Z" fill="#FF1A1A" stroke="black" stroke-width="7"/>
<path d="M174.545 301.689C176.17 310.145 178.632 317.512 181.239 322.578C182.55 325.126 183.832 326.961 184.962 328.067C186.157 329.236 186.729 329.176 186.778 329.167C186.827 329.157 187.38 329.001 188.057 327.472C188.696 326.026 189.206 323.847 189.479 320.994C190.022 315.323 189.577 307.567 187.951 299.112C186.326 290.656 183.864 283.288 181.257 278.223C179.946 275.674 178.664 273.84 177.534 272.734C176.339 271.565 175.767 271.625 175.718 271.634C175.669 271.643 175.116 271.8 174.439 273.329C173.8 274.775 173.29 276.954 173.017 279.807C172.474 285.478 172.919 293.234 174.545 301.689Z" fill="#FF8A00" stroke="black" stroke-width="5"/>
<path d="M164.828 309.245C169.133 316.702 173.872 322.857 177.995 326.79C180.068 328.768 181.88 330.082 183.31 330.756C184.822 331.47 185.343 331.226 185.386 331.201C185.429 331.176 185.901 330.847 186.039 329.181C186.17 327.605 185.938 325.379 185.262 322.594C183.917 317.058 180.956 309.876 176.651 302.419C172.346 294.963 167.606 288.807 163.484 284.875C161.411 282.897 159.599 281.583 158.169 280.908C156.657 280.195 156.136 280.439 156.093 280.464C156.05 280.489 155.578 280.818 155.44 282.484C155.309 284.06 155.541 286.285 156.217 289.07C157.562 294.607 160.523 301.789 164.828 309.245Z" fill="#FF8A00" stroke="black" stroke-width="5"/>
<path d="M158.549 318.842C164.638 324.931 170.809 329.649 175.808 332.381C178.323 333.755 180.413 334.555 181.969 334.837C183.614 335.135 184.054 334.764 184.089 334.729C184.125 334.694 184.495 334.254 184.197 332.608C183.916 331.052 183.116 328.963 181.742 326.448C179.01 321.448 174.291 315.277 168.203 309.189C162.114 303.1 155.943 298.382 150.944 295.65C148.429 294.276 146.339 293.476 144.783 293.194C143.138 292.896 142.698 293.267 142.663 293.302C142.628 293.337 142.257 293.777 142.555 295.423C142.836 296.979 143.636 299.068 145.01 301.583C147.742 306.583 152.461 312.754 158.549 318.842Z" fill="#FF8A00" stroke="black" stroke-width="5"/>
<path d="M154.299 328.39C161.755 332.695 168.937 335.656 174.474 337C177.258 337.677 179.484 337.908 181.06 337.778C182.726 337.639 183.055 337.168 183.08 337.125C183.105 337.082 183.349 336.561 182.636 335.048C181.961 333.618 180.647 331.807 178.669 329.733C174.737 325.611 168.581 320.872 161.125 316.567C153.668 312.261 146.486 309.301 140.95 307.956C138.165 307.28 135.939 307.048 134.363 307.178C132.697 307.317 132.368 307.789 132.343 307.832C132.318 307.875 132.074 308.395 132.788 309.908C133.462 311.338 134.776 313.149 136.754 315.223C140.687 319.345 146.842 324.084 154.299 328.39Z" fill="#FF8A00" stroke="black" stroke-width="5"/>
<path d="M151.909 339.292C160.226 341.52 167.93 342.521 173.626 342.387C176.491 342.32 178.7 341.968 180.189 341.433C181.762 340.869 181.958 340.328 181.971 340.28C181.984 340.232 182.085 339.665 181.004 338.389C179.982 337.183 178.245 335.773 175.797 334.282C170.932 331.318 163.76 328.333 155.443 326.105C147.126 323.876 139.422 322.875 133.727 323.009C130.862 323.077 128.652 323.429 127.164 323.963C125.59 324.528 125.394 325.069 125.381 325.117C125.368 325.164 125.267 325.731 126.348 327.007C127.37 328.214 129.107 329.623 131.555 331.114C136.42 334.078 143.592 337.063 151.909 339.292Z" fill="#FF8A00" stroke="black" stroke-width="5"/>
<path d="M152.463 349.983C161.073 349.983 168.774 348.956 174.24 347.352C176.99 346.546 179.034 345.633 180.333 344.732C181.707 343.779 181.756 343.206 181.756 343.157C181.756 343.107 181.707 342.534 180.333 341.581C179.034 340.68 176.99 339.768 174.24 338.961C168.774 337.357 161.073 336.331 152.463 336.331C143.853 336.331 136.153 337.357 130.686 338.961C127.936 339.768 125.892 340.68 124.593 341.581C123.219 342.534 123.17 343.107 123.17 343.157C123.17 343.206 123.219 343.779 124.593 344.732C125.892 345.633 127.936 346.546 130.686 347.352C136.153 348.956 143.853 349.983 152.463 349.983Z" fill="#FF8A00" stroke="black" stroke-width="5"/>
<path d="M155.814 359.765C164.131 357.537 171.303 354.552 176.169 351.588C178.616 350.097 180.354 348.687 181.376 347.481C182.456 346.205 182.355 345.638 182.343 345.59C182.33 345.542 182.134 345.001 180.56 344.437C179.072 343.903 176.862 343.55 173.997 343.483C168.301 343.349 160.598 344.35 152.281 346.579C143.964 348.807 136.792 351.792 131.926 354.756C129.479 356.247 127.741 357.656 126.72 358.863C125.639 360.139 125.74 360.706 125.753 360.754C125.766 360.802 125.961 361.342 127.535 361.907C129.023 362.441 131.233 362.794 134.098 362.861C139.794 362.995 147.497 361.994 155.814 359.765Z" fill="#FF8A00" stroke="black" stroke-width="5"/>
<path d="M162.402 372.386C169.859 368.081 176.014 363.341 179.947 359.219C181.925 357.146 183.239 355.334 183.913 353.904C184.627 352.392 184.383 351.871 184.358 351.828C184.333 351.785 184.004 351.313 182.338 351.175C180.762 351.044 178.536 351.276 175.751 351.952C170.215 353.297 163.033 356.258 155.576 360.563C148.12 364.868 141.964 369.607 138.032 373.73C136.054 375.803 134.74 377.615 134.065 379.045C133.352 380.557 133.596 381.078 133.621 381.121C133.646 381.164 133.975 381.636 135.641 381.774C137.217 381.905 139.443 381.673 142.227 380.997C147.764 379.652 154.946 376.691 162.402 372.386Z" fill="#FF8A00" stroke="black" stroke-width="5"/>
<path d="M172.293 379.222C178.382 373.133 183.1 366.962 185.832 361.963C187.206 359.448 188.006 357.358 188.288 355.802C188.586 354.157 188.215 353.717 188.18 353.682C188.145 353.647 187.705 353.276 186.059 353.574C184.503 353.855 182.414 354.655 179.899 356.029C174.899 358.761 168.728 363.48 162.64 369.568C156.551 375.657 151.833 381.828 149.101 386.827C147.727 389.342 146.927 391.432 146.645 392.988C146.347 394.633 146.718 395.073 146.753 395.108C146.788 395.144 147.228 395.514 148.874 395.216C150.43 394.935 152.519 394.135 155.034 392.761C160.034 390.029 166.205 385.31 172.293 379.222Z" fill="#FF8A00" stroke="black" stroke-width="5"/>
<path d="M183.188 382.803C187.493 375.346 190.454 368.164 191.799 362.628C192.475 359.843 192.707 357.617 192.576 356.041C192.438 354.375 191.966 354.046 191.923 354.021C191.88 353.996 191.359 353.752 189.847 354.466C188.417 355.14 186.605 356.454 184.532 358.432C180.41 362.365 175.67 368.52 171.365 375.977C167.06 383.433 164.099 390.615 162.754 396.152C162.078 398.936 161.846 401.162 161.977 402.738C162.115 404.404 162.587 404.733 162.63 404.758C162.673 404.783 163.194 405.027 164.706 404.314C166.136 403.639 167.948 402.325 170.021 400.347C174.144 396.415 178.883 390.259 183.188 382.803Z" fill="#FF8A00" stroke="black" stroke-width="5"/>
<path d="M193.51 384.438C195.739 376.121 196.74 368.417 196.606 362.721C196.538 359.856 196.186 357.647 195.652 356.158C195.087 354.585 194.546 354.389 194.498 354.376C194.451 354.363 193.884 354.262 192.608 355.343C191.401 356.365 189.992 358.102 188.501 360.55C185.537 365.415 182.552 372.587 180.323 380.904C178.095 389.221 177.094 396.925 177.228 402.62C177.295 405.485 177.647 407.695 178.182 409.183C178.746 410.757 179.287 410.953 179.335 410.966C179.383 410.979 179.95 411.08 181.226 409.999C182.432 408.977 183.842 407.24 185.333 404.792C188.297 399.927 191.282 392.754 193.51 384.438Z" fill="#FF8A00" stroke="black" stroke-width="5"/>
<path d="M204.659 383.924C204.659 375.313 203.632 367.613 202.029 362.146C201.222 359.396 200.31 357.353 199.409 356.054C198.456 354.68 197.883 354.631 197.833 354.631C197.784 354.631 197.21 354.68 196.257 356.054C195.356 357.353 194.444 359.396 193.638 362.146C192.034 367.613 191.007 375.313 191.007 383.924C191.007 392.534 192.034 400.234 193.638 405.701C194.444 408.451 195.356 410.494 196.257 411.794C197.21 413.168 197.784 413.217 197.833 413.217C197.883 413.217 198.456 413.168 199.409 411.794C200.31 410.494 201.222 408.451 202.029 405.701C203.632 400.234 204.659 392.534 204.659 383.924Z" fill="#FF8A00" stroke="black" stroke-width="5"/>
<path d="M214.843 380.622C212.614 372.305 209.629 365.133 206.665 360.267C205.175 357.82 203.765 356.082 202.558 355.06C201.282 353.98 200.716 354.081 200.668 354.094C200.62 354.106 200.079 354.302 199.514 355.876C198.98 357.364 198.628 359.574 198.56 362.439C198.426 368.135 199.427 375.838 201.656 384.155C203.884 392.472 206.869 399.644 209.833 404.51C211.324 406.957 212.734 408.695 213.94 409.717C215.217 410.797 215.783 410.696 215.831 410.684C215.879 410.671 216.42 410.475 216.985 408.901C217.519 407.413 217.871 405.203 217.938 402.338C218.072 396.642 217.071 388.939 214.843 380.622Z" fill="#FF8A00" stroke="black" stroke-width="5"/>
<path d="M223.654 372.823C219.349 365.366 214.609 359.211 210.487 355.278C208.414 353.3 206.602 351.987 205.172 351.312C203.66 350.599 203.139 350.843 203.096 350.867C203.053 350.892 202.581 351.221 202.443 352.888C202.312 354.464 202.544 356.689 203.22 359.474C204.565 365.01 207.526 372.192 211.831 379.649C216.136 387.106 220.876 393.261 224.998 397.194C227.071 399.172 228.883 400.485 230.313 401.16C231.825 401.873 232.346 401.629 232.389 401.605C232.432 401.58 232.904 401.251 233.042 399.584C233.173 398.008 232.941 395.783 232.265 392.998C230.92 387.462 227.959 380.28 223.654 372.823Z" fill="#FF8A00" stroke="black" stroke-width="5"/>
<path d="M234.139 363.193C228.051 357.105 221.88 352.386 216.88 349.654C214.366 348.28 212.276 347.48 210.72 347.198C209.074 346.901 208.634 347.271 208.599 347.306C208.564 347.341 208.194 347.781 208.491 349.427C208.773 350.983 209.573 353.073 210.947 355.587C213.679 360.587 218.398 366.758 224.486 372.846C230.574 378.935 236.745 383.654 241.745 386.385C244.26 387.759 246.35 388.559 247.905 388.841C249.551 389.139 249.991 388.768 250.026 388.733C250.061 388.698 250.432 388.258 250.134 386.612C249.852 385.057 249.052 382.967 247.678 380.452C244.947 375.452 240.228 369.281 234.139 363.193Z" fill="#FF8A00" stroke="black" stroke-width="5"/>
<path d="M238.182 351.87C230.726 347.565 223.544 344.604 218.007 343.259C215.223 342.583 212.997 342.351 211.421 342.482C209.755 342.62 209.426 343.092 209.401 343.135C209.376 343.178 209.132 343.699 209.845 345.211C210.52 346.641 211.834 348.453 213.812 350.526C217.745 354.648 223.9 359.388 231.356 363.693C238.813 367.998 245.995 370.959 251.531 372.304C254.316 372.98 256.542 373.212 258.118 373.081C259.784 372.943 260.113 372.471 260.138 372.428C260.163 372.385 260.407 371.864 259.693 370.352C259.019 368.922 257.705 367.11 255.727 365.037C251.794 360.914 245.639 356.175 238.182 351.87Z" fill="#FF8A00" stroke="black" stroke-width="5"/>
<path d="M238.821 340.42C230.504 338.191 222.801 337.19 217.105 337.324C214.24 337.391 212.03 337.743 210.542 338.278C208.968 338.842 208.773 339.383 208.76 339.431C208.747 339.479 208.646 340.046 209.727 341.322C210.748 342.528 212.486 343.938 214.933 345.429C219.799 348.393 226.971 351.378 235.288 353.606C243.605 355.835 251.309 356.836 257.004 356.702C259.869 356.634 262.079 356.282 263.567 355.748C265.141 355.183 265.337 354.642 265.35 354.595C265.362 354.547 265.463 353.98 264.383 352.704C263.361 351.497 261.623 350.088 259.176 348.597C254.31 345.633 247.138 342.648 238.821 340.42Z" fill="#FF8A00" stroke="black" stroke-width="5"/>
<path d="M237.729 330.026C229.119 330.026 221.418 331.053 215.952 332.656C213.202 333.463 211.158 334.375 209.859 335.276C208.485 336.229 208.436 336.802 208.436 336.852C208.436 336.902 208.485 337.475 209.859 338.428C211.158 339.329 213.202 340.241 215.952 341.047C221.418 342.651 229.119 343.678 237.729 343.678C246.339 343.678 254.04 342.651 259.506 341.047C262.256 340.241 264.3 339.329 265.599 338.428C266.973 337.475 267.022 336.902 267.022 336.852C267.022 336.802 266.973 336.229 265.599 335.276C264.3 334.375 262.256 333.463 259.506 332.656C254.04 331.053 246.339 330.026 237.729 330.026Z" fill="#FF8A00" stroke="black" stroke-width="5"/>
<path d="M234.347 319.39C226.03 321.618 218.858 324.603 213.993 327.567C211.545 329.058 209.808 330.468 208.786 331.674C207.705 332.95 207.806 333.517 207.819 333.565C207.832 333.613 208.028 334.154 209.601 334.719C211.09 335.253 213.299 335.605 216.164 335.672C221.86 335.806 229.564 334.805 237.881 332.577C246.197 330.348 253.37 327.363 258.235 324.399C260.683 322.909 262.42 321.499 263.442 320.292C264.523 319.016 264.422 318.45 264.409 318.402C264.396 318.354 264.2 317.813 262.626 317.248C261.138 316.714 258.928 316.362 256.063 316.294C250.368 316.16 242.664 317.161 234.347 319.39Z" fill="#FF8A00" stroke="black" stroke-width="5"/>
<path d="M228.522 310.408C221.065 314.713 214.91 319.452 210.978 323.575C208.999 325.648 207.686 327.46 207.011 328.89C206.298 330.402 206.542 330.923 206.567 330.966C206.591 331.009 206.921 331.481 208.587 331.619C210.163 331.75 212.388 331.518 215.173 330.842C220.709 329.497 227.891 326.536 235.348 322.231C242.805 317.926 248.96 313.186 252.893 309.064C254.871 306.991 256.184 305.179 256.859 303.749C257.573 302.237 257.329 301.716 257.304 301.673C257.279 301.63 256.95 301.158 255.283 301.02C253.708 300.889 251.482 301.121 248.697 301.797C243.161 303.142 235.979 306.103 228.522 310.408Z" fill="#FF8A00" stroke="black" stroke-width="5"/>
<path d="M218.179 302.971C212.091 309.06 207.372 315.231 204.64 320.23C203.266 322.745 202.466 324.835 202.185 326.391C201.887 328.036 202.257 328.476 202.293 328.512C202.328 328.547 202.768 328.917 204.413 328.619C205.969 328.338 208.059 327.538 210.574 326.164C215.573 323.432 221.744 318.713 227.833 312.625C233.921 306.536 238.64 300.366 241.372 295.366C242.746 292.851 243.546 290.761 243.827 289.205C244.125 287.56 243.754 287.12 243.719 287.085C243.684 287.05 243.244 286.679 241.599 286.977C240.043 287.258 237.953 288.058 235.438 289.433C230.438 292.164 224.268 296.883 218.179 302.971Z" fill="#FF8A00" stroke="black" stroke-width="5"/>
<path d="M205.241 298.463C200.935 305.92 197.975 313.102 196.63 318.638C195.953 321.423 195.722 323.648 195.852 325.224C195.991 326.89 196.462 327.22 196.505 327.244C196.548 327.269 197.069 327.513 198.582 326.8C200.012 326.125 201.823 324.812 203.897 322.833C208.019 318.901 212.758 312.746 217.063 305.289C221.369 297.832 224.329 290.65 225.674 285.114C226.351 282.329 226.582 280.103 226.452 278.528C226.313 276.861 225.842 276.532 225.799 276.507C225.756 276.482 225.235 276.238 223.722 276.952C222.292 277.627 220.481 278.94 218.407 280.918C214.285 284.851 209.546 291.006 205.241 298.463Z" fill="#FF8A00" stroke="black" stroke-width="5"/>
<path d="M197.165 297.645C194.936 305.962 193.935 313.665 194.069 319.361C194.136 322.226 194.489 324.436 195.023 325.924C195.587 327.498 196.128 327.694 196.176 327.706C196.224 327.719 196.791 327.82 198.067 326.74C199.273 325.718 200.683 323.98 202.174 321.533C205.138 316.667 208.123 309.495 210.351 301.178C212.58 292.861 213.581 285.158 213.447 279.462C213.38 276.597 213.027 274.387 212.493 272.899C211.928 271.325 211.388 271.129 211.34 271.117C211.292 271.104 210.725 271.003 209.449 272.083C208.242 273.105 206.833 274.843 205.342 277.29C202.378 282.156 199.393 289.328 197.165 297.645Z" fill="#FF8A00" stroke="black" stroke-width="5"/>
<path d="M187.887 298.364C187.887 306.974 188.913 314.674 190.517 320.141C191.324 322.891 192.236 324.934 193.137 326.234C194.09 327.608 194.663 327.657 194.713 327.657C194.762 327.657 195.335 327.608 196.288 326.234C197.189 324.934 198.101 322.891 198.908 320.141C200.512 314.674 201.539 306.974 201.539 298.364C201.539 289.753 200.512 282.053 198.908 276.586C198.101 273.836 197.189 271.793 196.288 270.494C195.335 269.12 194.762 269.071 194.713 269.071C194.663 269.071 194.09 269.12 193.137 270.494C192.236 271.793 191.324 273.836 190.517 276.586C188.913 282.053 187.887 289.753 187.887 298.364Z" fill="#FF8A00" stroke="black" stroke-width="5"/>
<circle cx="195.443" cy="339.278" r="19.5474" fill="#FF5C00" stroke="black" stroke-width="7"/>
</svg>
