<svg width="516" height="516" viewBox="0 0 425 516" fill="none" xmlns="http://www.w3.org/2000/svg">
<path d="M5.32699 259.177C5.9192 157.879 40.1195 99.9723 57.1456 83.6816C69.3456 71.0933 150.681 53.4696 378.421 83.6816C407.44 122.187 418.149 172.787 419.876 193.274C419.383 271.519 418.692 432.896 419.876 452.445C421.061 471.994 413.46 479.349 409.512 480.583C404.824 483.545 392.042 491.987 378.421 502.058C364.8 512.128 328.823 511.684 312.538 510.203C245.667 510.697 100.969 511.388 57.1456 510.203C13.3219 509.018 4.33997 486.014 5.32699 474.659C5.08024 445.04 4.73478 360.476 5.32699 259.177Z" fill="#C7A575"/>
<path d="M378.421 502.058C364.8 512.128 328.823 511.684 312.538 510.203C245.667 510.697 100.969 511.388 57.1456 510.203C13.3219 509.018 4.33997 486.014 5.32699 474.659C5.08024 445.04 4.73478 360.476 5.32699 259.177C5.9192 157.879 40.1195 99.9723 57.1456 83.6816C69.3456 71.0933 150.681 53.4696 378.421 83.6816M378.421 502.058C392.042 491.987 404.824 483.545 409.512 480.583C413.46 479.349 421.061 471.994 419.876 452.445C418.692 432.896 419.383 271.519 419.876 193.274C418.149 172.787 407.44 122.187 378.421 83.6816M378.421 502.058C345.257 514.498 337.46 492.925 337.707 480.583C337.707 406.781 337.707 251.18 337.707 219.191C337.707 179.205 369.538 101.453 378.421 83.6816" stroke="#AF8E5F" stroke-width="10"/>
<rect x="58" y="172" width="234" height="22" rx="11" fill="#AF8E5F"/>
<mask id="path-4-inside-1" fill="white">
<rect x="51" width="334" height="85" rx="4"/>
</mask>
<rect x="51" width="334" height="85" rx="4" fill="#C7A575" stroke="#AF8E5F" stroke-width="20" mask="url(#path-4-inside-1)"/>
<path d="M274.21 297.593C278.216 292.565 277.549 287.847 276.714 286.117C272.54 281.199 272.262 281.745 263.914 281.199C255.566 280.652 204.366 295.134 203.531 300.872C202.863 305.462 188.412 327.74 181.27 338.305C190.453 338.396 206.87 333.387 225.792 340.218C244.714 332.567 269.201 303.877 274.21 297.593Z" fill="url(#paint0_linear)" stroke="black" stroke-width="10"/>
<path d="M89.6237 278.949C83.1861 278.055 79.3591 280.982 78.2502 282.557C75.9995 288.565 76.6206 288.529 80.3126 295.901C84.0045 303.273 122.377 339.572 127.855 337.413C132.237 335.686 159.111 336.836 172 337.627C167.489 329.772 154.862 318.316 151.426 298.81C135.217 286.544 97.6706 280.066 89.6237 278.949Z" fill="url(#paint1_linear)" stroke="black" stroke-width="10"/>
<path d="M166.727 446.576C169.158 452.497 173.653 454.288 175.597 454.443C182.021 453.353 181.678 452.843 186.334 446.017C190.99 439.192 203.818 388.411 199.175 384.832C195.46 381.969 183.038 358.541 177.291 347.185C172.619 354.948 168.829 371.414 153.343 384.09C150.63 404.006 163.689 439.174 166.727 446.576Z" fill="url(#paint2_linear)" stroke="black" stroke-width="10"/>
<path d="M193.514 250.05C188.394 224.912 180.806 220.267 177.653 221.087C167.357 221.087 164.018 242.672 161.235 252.236C138.974 289.177 159.566 322.822 172.644 335.026C174.313 335.299 178.32 335.682 180.992 335.026C218.279 296.227 198.522 259.34 193.514 250.05Z" fill="#FF7B01" stroke="black" stroke-width="10"/>
<path d="M88.476 371.472C68.8657 388.395 68.5626 397.169 70.8624 399.441C76.0103 408.197 96.7174 400.243 106.543 397.828C150.254 398.288 169.632 363.955 173.856 346.731C173.262 345.175 171.596 341.576 169.682 339.632C116.819 327.323 94.1651 362.568 88.476 371.472Z" fill="#FF7A00" stroke="black" stroke-width="10"/>
<path d="M248.312 399.591C273.042 407.806 280.933 403.677 281.786 400.585C286.934 391.83 269.566 378.197 262.523 371.049C241.073 333.648 201.104 334.337 183.801 339.356C182.726 340.639 180.385 343.855 179.627 346.455C195.203 397.563 237.614 399.206 248.312 399.591Z" fill="#FF7A00" stroke="black" stroke-width="10"/>
<path d="M187.114 344.316C199.728 343.77 235.698 353.77 278.662 398.144C253.896 392.679 191.009 363.989 187.114 344.316Z" fill="url(#paint3_radial)"/>
<path d="M187.114 344.316C199.728 343.77 235.698 353.77 278.662 398.144C253.896 392.679 191.009 363.989 187.114 344.316Z" fill="url(#paint4_radial)"/>
<path d="M173.508 343.633C167.683 354.634 140.878 380.222 80.261 394.57C97.4633 376.243 154.21 337.109 173.508 343.633Z" fill="url(#paint5_radial)"/>
<path d="M175.584 335.142C168.795 324.688 159.63 289.099 177.283 230.377C184.846 254.169 190.987 321.992 175.584 335.142Z" fill="url(#paint6_radial)"/>
<path fill-rule="evenodd" clip-rule="evenodd" d="M186 303.877C186 307.201 184.051 310.077 181.214 311.464C181.429 311.956 181.548 312.498 181.548 313.069V331.291C185.479 332.977 188.227 336.829 188.227 341.311C188.227 347.347 183.243 352.24 177.096 352.24C170.949 352.24 165.966 347.347 165.966 341.311C165.966 336.62 168.975 332.62 173.2 331.069V313.069C173.2 312.498 173.32 311.956 173.535 311.464C170.698 310.077 168.748 307.201 168.748 303.877C168.748 299.199 172.61 295.407 177.374 295.407C182.138 295.407 186 299.199 186 303.877Z" fill="black"/>
<path fill-rule="evenodd" clip-rule="evenodd" d="M149.122 351.829C146.481 350.114 142.973 349.897 140.045 351.557C135.919 353.896 134.505 359.076 136.887 363.128C139.269 367.179 144.545 368.567 148.671 366.228C151.599 364.568 153.161 361.476 152.969 358.373C153.495 358.313 154.016 358.149 154.503 357.873L174.534 346.518C176.455 345.428 177.106 343.001 175.986 341.097L175.867 340.894C174.747 338.99 172.281 338.329 170.36 339.419L150.329 350.775C149.843 351.05 149.437 351.412 149.122 351.829Z" fill="black"/>
<path fill-rule="evenodd" clip-rule="evenodd" d="M201.027 358.373C200.835 361.476 202.397 364.568 205.326 366.228C209.451 368.567 214.727 367.179 217.109 363.128C219.491 359.076 218.078 353.896 213.952 351.557C211.023 349.897 207.515 350.114 204.874 351.829C204.559 351.412 204.154 351.05 203.667 350.775L183.637 339.419C181.715 338.329 179.249 338.99 178.13 340.894L178.01 341.097C176.891 343.001 177.541 345.428 179.463 346.518L199.493 357.873C199.98 358.149 200.501 358.313 201.027 358.373Z" fill="black"/>
<defs>
<linearGradient id="paint0_linear" x1="273.096" y1="286.39" x2="187.343" y2="336.374" gradientUnits="userSpaceOnUse">
<stop offset="0.578125" stop-color="#FF7A00"/>
<stop offset="1" stop-color="#FF3D00"/>
</linearGradient>
<linearGradient id="paint1_linear" x1="80.2999" y1="285.496" x2="165.662" y2="336.123" gradientUnits="userSpaceOnUse">
<stop offset="0.578125" stop-color="#FF7A00"/>
<stop offset="1" stop-color="#FF3D00"/>
</linearGradient>
<linearGradient id="paint2_linear" x1="177.164" y1="451.23" x2="177.526" y2="353.321" gradientUnits="userSpaceOnUse">
<stop offset="0.578125" stop-color="#FF7A00"/>
<stop offset="1" stop-color="#FF3D00"/>
</linearGradient>
<radialGradient id="paint3_radial" cx="0" cy="0" r="1" gradientUnits="userSpaceOnUse" gradientTransform="translate(199.079 352.513) rotate(30.8997) scale(88.8552 9.49662)">
<stop stop-color="#FFA800"/>
<stop offset="1" stop-color="#C4C4C4" stop-opacity="0"/>
</radialGradient>
<radialGradient id="paint4_radial" cx="0" cy="0" r="1" gradientUnits="userSpaceOnUse" gradientTransform="translate(199.079 352.513) rotate(30.8997) scale(88.8552 9.49662)">
<stop stop-color="#FFA800"/>
<stop offset="1" stop-color="#C4C4C4" stop-opacity="0"/>
</radialGradient>
<radialGradient id="paint5_radial" cx="0" cy="0" r="1" gradientUnits="userSpaceOnUse" gradientTransform="translate(160.296 349.71) rotate(151.799) scale(88.9213 9.48956)">
<stop stop-color="#FFA800"/>
<stop offset="1" stop-color="#C4C4C4" stop-opacity="0"/>
</radialGradient>
<radialGradient id="paint6_radial" cx="0" cy="0" r="1" gradientUnits="userSpaceOnUse" gradientTransform="translate(176.831 320.868) rotate(-88.6131) scale(87.6774 9.62419)">
<stop stop-color="#FFA800"/>
<stop offset="1" stop-color="#C4C4C4" stop-opacity="0"/>
</radialGradient>
</defs>
</svg>
