<svg width="574" height="574" viewBox="0 0 574 574" fill="none" xmlns="http://www.w3.org/2000/svg">
<rect width="574" height="574" fill="none"/>
<path d="M80.327 290.177C80.9192 188.879 115.12 130.972 132.146 114.682C144.346 102.093 225.681 84.4696 453.421 114.682C482.44 153.187 493.149 203.787 494.876 224.274C494.383 302.519 493.692 463.896 494.876 483.445C496.061 502.994 488.46 510.349 484.512 511.583C479.824 514.545 467.042 522.987 453.421 533.058C439.8 543.128 403.823 542.684 387.538 541.203C320.667 541.697 175.969 542.388 132.146 541.203C88.3219 540.018 79.34 517.014 80.327 505.659C80.0802 476.04 79.7348 391.476 80.327 290.177Z" fill="#C7A575"/>
<path d="M453.421 533.058C439.8 543.128 403.823 542.684 387.538 541.203C320.667 541.697 175.969 542.388 132.146 541.203C88.3219 540.018 79.34 517.014 80.327 505.659C80.0802 476.04 79.7348 391.476 80.327 290.177C80.9192 188.879 115.12 130.972 132.146 114.682C144.346 102.093 225.681 84.4696 453.421 114.682M453.421 533.058C467.042 522.987 479.824 514.545 484.512 511.583C488.46 510.349 496.061 502.994 494.876 483.445C493.692 463.896 494.383 302.519 494.876 224.274C493.149 203.787 482.44 153.187 453.421 114.682M453.421 533.058C420.257 545.498 412.46 523.925 412.707 511.583C412.707 437.781 412.707 282.18 412.707 250.191C412.707 210.205 444.538 132.453 453.421 114.682" stroke="#AF8E5F" stroke-width="10"/>
<rect x="133" y="203" width="234" height="22" rx="11" fill="#AF8E5F"/>
<mask id="path-4-inside-1" fill="white">
<rect x="126" y="31" width="334" height="85" rx="4"/>
</mask>
<rect x="126" y="31" width="334" height="85" rx="4" fill="#C7A575" stroke="#AF8E5F" stroke-width="20" mask="url(#path-4-inside-1)"/>
<path d="M244.793 312.848C240.159 320.546 233.671 340.042 244.793 356.443" stroke="black" stroke-width="10"/>
<circle cx="245.971" cy="305.072" r="5" stroke="black" stroke-width="9.32297"/>
<path d="M304.883 365.157C337.638 390.843 344 429.022 344 434.913C316.147 434.913 287.335 419.565 268.122 408.43C267.886 413.645 267.132 425.298 266.001 430.2C264.87 435.101 251.862 448.894 245.5 455.178C244.95 454.393 241.871 450.607 233.953 441.746C224.905 434.583 223.585 417.202 224.056 409.407C189.138 434.484 147 436.442 147 433.499C148.67 401.352 179.556 371.979 195.596 357.665L195.543 357.621L194.836 356.674C191.38 352.12 182.158 340.56 172.921 330.757C161.374 318.504 163.495 297.06 165.38 290.933C182.535 288.859 194.208 294.154 197.9 297.06L218.682 312.612C224.948 288.419 239.066 266.565 246.914 257C252.726 267.133 266.284 293.195 274.013 316.383C282.418 306.093 307.946 286.597 334.339 290.933C334.574 300.359 336.224 320.389 323.734 333.349C313.743 343.718 303.862 356.542 300.17 361.658C301.687 362.719 303.258 363.883 304.883 365.157Z" fill="#FF7A00"/>
<path d="M246.207 378.358C246.05 380.164 245.359 385.286 243.85 391.318C237.812 398.382 231.08 404.363 224.056 409.407M246.207 378.358C245.264 383.542 247.15 396.125 262.231 404.986C264.073 406.068 266.041 407.224 268.122 408.43M246.207 378.358V425.722M274.013 316.383C281.742 339.57 268.829 353.218 260.817 356.674C266.343 353.016 277.218 345.605 300.17 361.658M274.013 316.383C266.284 293.195 252.726 267.133 246.914 257C239.066 266.565 224.948 288.419 218.682 312.612M274.013 316.383C282.418 306.093 307.946 286.597 334.339 290.933M334.339 290.933C334.574 300.359 336.224 320.389 323.734 333.349C313.743 343.718 303.862 356.542 300.17 361.658M334.339 290.933C306.627 296.023 290.901 324.159 286.502 337.591M300.17 361.658C301.687 362.719 303.258 363.883 304.883 365.157C337.638 390.843 344 429.022 344 434.913C316.147 434.913 287.335 419.565 268.122 408.43M218.682 312.612C216.921 319.414 215.78 326.4 215.573 333.349C215.95 341.455 227.355 351.651 233.011 355.736C226.648 350.944 211.331 343.671 200.963 352.908C199.483 354.226 197.663 355.821 195.596 357.665M218.682 312.612L197.9 297.06C194.208 294.154 182.535 288.859 165.38 290.933C163.495 297.06 161.374 318.504 172.921 330.757C182.158 340.56 191.38 352.12 194.836 356.674L195.543 357.621L195.596 357.665M195.596 357.665C179.556 371.979 148.67 401.352 147 433.499C147 436.442 189.138 434.484 224.056 409.407M224.056 409.407C223.585 417.202 224.905 434.583 233.953 441.746C241.871 450.607 244.95 454.393 245.5 455.178C251.862 448.894 264.87 435.101 266.001 430.2C267.132 425.298 267.886 413.645 268.122 408.43" stroke="black" stroke-width="10"/>
<path d="M229.947 325.337C229.193 343.058 237.959 353.144 242.437 355.971C240.159 357.935 239.703 360.119 256.104 353.144C272.505 346.168 254.926 299.181 244.086 276.559C239.687 285.435 230.701 307.617 229.947 325.337Z" fill="url(#paint0_radial)"/>
<path d="M198.842 324.866C208.504 324.473 232.351 332.171 244.793 358.563" stroke="black" stroke-width="10"/>
<path d="M159.725 418.653C183.289 371.335 216.516 358.563 230.183 358.092C238.274 359.349 250.637 362.617 235.367 365.633C216.28 369.403 173.628 411.584 159.725 418.653Z" fill="url(#paint1_radial)"/>
<path d="M205.44 375.53C209.525 368.225 223.019 354.699 244.322 359.035" stroke="black" stroke-width="10"/>
<path d="M301.2 386.905C287.841 365.665 267.371 358.217 258.806 357.148C253.392 352.474 236.205 363.338 250.673 368.867C265.141 374.395 291.713 405.52 298.474 415.783C303.882 423.994 312.671 428.31 316.39 429.442C316.893 424.113 314.559 408.145 301.2 386.905Z" fill="url(#paint2_radial)"/>
<path d="M256.575 329.108C258.775 332.642 261.854 341.314 256.575 347.724C251.297 354.133 246.992 358.092 245.5 359.27C238.902 360.684 225.659 367.989 225.47 385.898" stroke="black" stroke-width="10"/>
<path d="M253.748 359.742C267.415 363.826 299.086 379.442 316.429 409.227" stroke="black" stroke-width="10"/>
<rect x="249.506" y="320.104" width="6.59809" height="5.6555" transform="rotate(-18.3016 249.506 320.104)" fill="black"/>
<rect x="184.939" y="321.803" width="6.59809" height="5.6555" fill="black"/>
<rect x="222.171" y="391.083" width="6.59809" height="5.6555" fill="black"/>
<defs>
<radialGradient id="paint0_radial" cx="0" cy="0" r="1" gradientUnits="userSpaceOnUse" gradientTransform="translate(246.207 339.005) rotate(-90) scale(49.4856 9.5572)">
<stop stop-color="#FFE600"/>
<stop offset="1" stop-color="#C4C4C4" stop-opacity="0"/>
</radialGradient>
<radialGradient id="paint1_radial" cx="0" cy="0" r="1" gradientUnits="userSpaceOnUse" gradientTransform="translate(217.222 366.104) rotate(143.943) scale(33.2294 6.57503)">
<stop stop-color="#FFE600"/>
<stop offset="1" stop-color="#FFE600" stop-opacity="0"/>
</radialGradient>
<radialGradient id="paint2_radial" cx="0" cy="0" r="1" gradientUnits="userSpaceOnUse" gradientTransform="translate(254.947 363.287) rotate(38.7903) scale(52.2284 8.01429)">
<stop stop-color="#FFB800"/>
<stop offset="1" stop-color="#C4C4C4" stop-opacity="0"/>
</radialGradient>
</defs>
</svg>
