<svg width="516" height="516" viewBox="0 0 574 574" fill="none" xmlns="http://www.w3.org/2000/svg">
<rect width="574" height="574" fill="none"/>
<path d="M80.327 290.177C80.9192 188.879 115.12 130.972 132.146 114.682C144.346 102.093 225.681 84.4696 453.421 114.682C482.44 153.187 493.149 203.787 494.876 224.274C494.383 302.519 493.692 463.896 494.876 483.445C496.061 502.994 488.46 510.349 484.512 511.583C479.824 514.545 467.042 522.987 453.421 533.058C439.8 543.128 403.823 542.684 387.538 541.203C320.667 541.697 175.969 542.388 132.146 541.203C88.3219 540.018 79.34 517.014 80.327 505.659C80.0802 476.04 79.7348 391.476 80.327 290.177Z" fill="#C7A575"/>
<path d="M453.421 533.058C439.8 543.128 403.823 542.684 387.538 541.203C320.667 541.697 175.969 542.388 132.146 541.203C88.3219 540.018 79.34 517.014 80.327 505.659C80.0802 476.04 79.7348 391.476 80.327 290.177C80.9192 188.879 115.12 130.972 132.146 114.682C144.346 102.093 225.681 84.4696 453.421 114.682M453.421 533.058C467.042 522.987 479.824 514.545 484.512 511.583C488.46 510.349 496.061 502.994 494.876 483.445C493.692 463.896 494.383 302.519 494.876 224.274C493.149 203.787 482.44 153.187 453.421 114.682M453.421 533.058C420.257 545.498 412.46 523.925 412.707 511.583C412.707 437.781 412.707 282.18 412.707 250.191C412.707 210.205 444.538 132.453 453.421 114.682" stroke="#AF8E5F" stroke-width="10"/>
<rect x="133" y="203" width="234" height="22" rx="11" fill="#AF8E5F"/>
<mask id="path-4-inside-1" fill="white">
<rect x="126" y="31" width="334" height="85" rx="4"/>
</mask>
<rect x="126" y="31" width="334" height="85" rx="4" fill="#C7A575" stroke="#AF8E5F" stroke-width="20" mask="url(#path-4-inside-1)"/>
<path d="M216.624 331.926C200.847 286.029 229.174 258.505 245.309 250.48C255.042 254.834 282.959 270.97 281.422 309.387C280.193 340.121 258.542 359.074 247.871 364.709C240.955 360.696 225.025 348.522 216.624 331.926Z" fill="white"/>
<path d="M275.019 326.291C275.019 343.265 263.494 353.439 248.383 363.94C230.967 353.183 217.136 343.265 217.136 326.291C217.136 295.045 231.126 282.751 248.383 282.751C265.64 282.751 278.861 302.216 275.019 326.291Z" fill="url(#paint0_radial)"/>
<path fill-rule="evenodd" clip-rule="evenodd" d="M244.732 246C231.319 250.537 206.502 269.567 206.502 309.643V309.783L206.51 309.923C208.16 339.352 227.621 361.659 246.339 370.04L247.358 367.765L248.377 370.04C267.375 361.534 284.525 338.79 286.158 309.667L286.166 309.527V309.387C286.166 269.093 259.579 250.458 246.399 246L245.565 248.465L244.732 246ZM245.583 256.41C235.067 261.184 216.555 276.882 216.502 309.503C217.882 333.149 232.7 351.398 247.341 359.382C261.536 351.478 274.778 333.156 276.166 309.247C276.109 276.796 256.443 261.215 245.583 256.41Z" fill="black"/>
<path d="M206.916 379.725C158.409 378.166 142.745 341.909 140.976 323.975C148.504 316.425 173.505 296.062 208.87 311.148C237.162 323.216 247.186 350.188 248.662 362.165C242.454 367.203 225.414 377.769 206.916 379.725Z" fill="white"/>
<path d="M222.396 323.139C238.262 329.169 243.678 343.557 248.125 361.413C231.882 373.871 217.697 383.275 201.831 377.245C172.623 366.143 166.102 348.699 172.233 332.568C178.364 316.437 201.257 310.994 222.396 323.139Z" fill="url(#paint1_radial)"/>
<path fill-rule="evenodd" clip-rule="evenodd" d="M136.583 322.923C136.058 337.073 145.03 367.032 182.491 381.271L182.622 381.32L182.756 381.363C210.85 390.276 238.617 380.01 253.101 365.491L251.336 363.73L253.825 363.586C252.624 342.805 237.457 318.694 210.814 306.82L210.686 306.763L210.555 306.713C172.89 292.397 146.025 310.628 137.175 321.365L139.183 323.02L136.583 322.923ZM146.616 325.826C147.343 337.352 155.439 360.233 185.912 371.873C208.507 378.985 230.829 371.617 243.494 360.767C241.149 344.691 228.727 325.803 206.871 316.011C176.517 304.534 154.965 317.382 146.616 325.826Z" fill="black"/>
<path d="M248.492 409.711C231.778 455.274 192.436 458.759 174.854 454.806C170.049 445.288 158.569 415.156 183.998 386.318C204.341 363.248 233.096 362.202 244.931 364.563C247.765 372.038 252.445 391.534 248.492 409.711Z" fill="white"/>
<path d="M199.63 377.243C210.339 364.073 225.7 363.45 244.049 364.836C250.775 384.169 255.249 400.59 244.54 413.76C224.827 438.003 206.218 438.716 192.828 427.829C179.439 416.942 181.461 393.498 199.63 377.243Z" fill="url(#paint2_radial)"/>
<path fill-rule="evenodd" clip-rule="evenodd" d="M171.182 457.595C163.768 445.821 154.896 414.589 180.317 383.326L180.406 383.217L180.5 383.113C200.14 361.548 227.795 354.721 247.902 360.106L247.257 362.514L249.483 361.392C258.718 379.703 259.745 409.289 242.459 433.163L242.377 433.277L242.289 433.385C217.005 464.48 185.745 463.589 172.475 458.646L173.384 456.208L171.182 457.595ZM178.382 450.032C172.988 439.454 167.559 414.957 187.988 389.743C204.149 372.068 225.981 366.207 241.981 369.029C248.304 384.461 248.289 407.968 234.441 427.186C213.82 452.462 189.554 452.962 178.382 450.032Z" fill="black"/>
<path d="M296.244 375.501C334.208 405.735 325.103 444.168 315.806 459.605C305.258 461.162 273.043 462.551 253.7 429.323C238.225 402.74 246.304 375.123 252.277 364.638C260.265 364.307 280.242 366.016 296.244 375.501Z" fill="white"/>
<path d="M250.019 411.626C240.9 397.309 245.154 382.536 252.258 365.561C272.726 365.277 289.72 366.212 298.839 380.529C315.626 406.883 310.431 424.767 295.876 434.038C281.321 443.309 259.713 433.995 250.019 411.626Z" fill="url(#paint3_radial)"/>
<path fill-rule="evenodd" clip-rule="evenodd" d="M317.293 463.97C303.782 467.291 271.347 465.857 249.699 431.871L249.624 431.753L249.555 431.631C235.286 406.19 237.532 377.794 248.985 360.413L251.067 361.785L250.704 359.318C270.994 356.331 299.393 364.69 316.595 388.625L316.677 388.738L316.752 388.856C338.283 422.658 327.575 452.041 318.7 463.074L316.672 461.443L317.293 463.97ZM312.389 454.751C300.648 456.533 275.69 453.957 258.209 426.617C246.534 405.706 247.86 383.139 255.585 368.846C272.224 367.714 294.525 375.145 308.393 394.348C325.874 421.89 318.693 445.075 312.389 454.751Z" fill="black"/>
<path d="M271.605 327.604C308.942 296.6 344.713 313.347 357.931 325.596C357.304 336.24 352.098 368.061 315.624 380.225C286.446 389.957 261.055 376.419 252.008 368.433C253.312 360.546 259.057 341.337 271.605 327.604Z" fill="white"/>
<path d="M297.549 380.222C281.674 386.231 268.078 379.055 252.908 368.641C256.802 348.544 261.181 332.098 277.056 326.089C306.278 315.026 322.728 323.757 328.838 339.896C334.948 356.035 321.424 375.291 297.549 380.222Z" fill="url(#paint4_radial)"/>
<path fill-rule="evenodd" clip-rule="evenodd" d="M361.916 323.47C352.924 312.532 326.34 296.06 288.86 310.249L288.729 310.298L288.601 310.355C261.663 322.318 247.69 348.416 246.479 368.889L248.968 369.037L247.201 370.795C261.882 385.551 289.224 393.537 317.039 384.754L317.173 384.712L317.304 384.662C354.988 370.396 363.004 338.934 362.506 325.029L359.906 325.122L361.916 323.47ZM352.481 327.952C344.294 319.807 323.059 308.052 292.532 319.551C270.905 329.214 259.085 349.533 256.802 366.053C269.22 376.529 291.043 382.427 313.895 375.26C344.224 363.718 351.833 339.809 352.481 327.952Z" fill="black"/>
<defs>
<radialGradient id="paint0_radial" cx="0" cy="0" r="1" gradientUnits="userSpaceOnUse" gradientTransform="translate(246.59 356.513) rotate(-90) scale(65.5661 47.2842)">
<stop stop-color="#FFB800"/>
<stop offset="0.692708" stop-color="#EFBB35" stop-opacity="0.729032"/>
<stop offset="1" stop-color="#C4C4C4" stop-opacity="0"/>
</radialGradient>
<radialGradient id="paint1_radial" cx="0" cy="0" r="1" gradientUnits="userSpaceOnUse" gradientTransform="translate(240.546 360.45) rotate(-159.189) scale(65.5661 47.2842)">
<stop stop-color="#FFB800"/>
<stop offset="0.692708" stop-color="#EFBB35" stop-opacity="0.729032"/>
<stop offset="1" stop-color="#C4C4C4" stop-opacity="0"/>
</radialGradient>
<radialGradient id="paint2_radial" cx="0" cy="0" r="1" gradientUnits="userSpaceOnUse" gradientTransform="translate(240.754 371.729) rotate(129.115) scale(65.5661 47.2842)">
<stop stop-color="#FFB800"/>
<stop offset="0.692708" stop-color="#EFBB35" stop-opacity="0.729032"/>
<stop offset="1" stop-color="#C4C4C4" stop-opacity="0"/>
</radialGradient>
<radialGradient id="paint3_radial" cx="0" cy="0" r="1" gradientUnits="userSpaceOnUse" gradientTransform="translate(257.76 370.862) rotate(57.504) scale(65.5661 47.2842)">
<stop stop-color="#FFB800"/>
<stop offset="0.692708" stop-color="#EFBB35" stop-opacity="0.729032"/>
<stop offset="1" stop-color="#C4C4C4" stop-opacity="0"/>
</radialGradient>
<radialGradient id="paint4_radial" cx="0" cy="0" r="1" gradientUnits="userSpaceOnUse" gradientTransform="translate(259.219 364.334) rotate(-20.7349) scale(65.5661 47.2842)">
<stop stop-color="#FFB800"/>
<stop offset="0.692708" stop-color="#EFBB35" stop-opacity="0.729032"/>
<stop offset="1" stop-color="#C4C4C4" stop-opacity="0"/>
</radialGradient>
</defs>
</svg>
