<svg width="516" height="516" viewBox="0 0 574 574" fill="none" xmlns="http://www.w3.org/2000/svg">
<g clip-path="url(#clip0)">
<rect width="574" height="574" fill="none"/>
<path d="M80.327 290.177C80.9192 188.879 115.12 130.972 132.146 114.682C144.346 102.093 225.681 84.4696 453.421 114.682C482.44 153.187 493.149 203.787 494.876 224.274C494.383 302.519 493.692 463.896 494.876 483.445C496.061 502.994 488.46 510.349 484.512 511.583C479.824 514.545 467.042 522.987 453.421 533.058C439.8 543.128 403.823 542.684 387.538 541.203C320.667 541.697 175.969 542.388 132.146 541.203C88.3219 540.018 79.34 517.014 80.327 505.659C80.0802 476.04 79.7348 391.476 80.327 290.177Z" fill="#C7A575"/>
<path d="M453.421 533.058C439.8 543.128 403.823 542.684 387.538 541.203C320.667 541.697 175.969 542.388 132.146 541.203C88.3219 540.018 79.34 517.014 80.327 505.659C80.0802 476.04 79.7348 391.476 80.327 290.177C80.9192 188.879 115.12 130.972 132.146 114.682C144.346 102.093 225.681 84.4696 453.421 114.682M453.421 533.058C467.042 522.987 479.824 514.545 484.512 511.583C488.46 510.349 496.061 502.994 494.876 483.445C493.692 463.896 494.383 302.519 494.876 224.274C493.149 203.787 482.44 153.187 453.421 114.682M453.421 533.058C420.257 545.498 412.46 523.925 412.707 511.583C412.707 437.781 412.707 282.18 412.707 250.191C412.707 210.205 444.538 132.453 453.421 114.682" stroke="#AF8E5F" stroke-width="10"/>
<rect x="133" y="203" width="234" height="22" rx="11" fill="#AF8E5F"/>
<mask id="path-4-inside-1" fill="white">
<rect x="126" y="31" width="334" height="85" rx="4"/>
</mask>
<rect x="126" y="31" width="334" height="85" rx="4" fill="#C7A575" stroke="#AF8E5F" stroke-width="20" mask="url(#path-4-inside-1)"/>
<mask id="path-5-inside-2" fill="white">
<path fill-rule="evenodd" clip-rule="evenodd" d="M133.229 360.07C133.229 377.322 139.974 392.951 150.895 404.306C152.953 435.319 176.843 460.15 206.844 462.593C217.629 472.543 231.871 478.593 247.484 478.593C262.995 478.593 277.153 472.622 287.912 462.789C288.064 462.79 288.216 462.79 288.368 462.79C321.484 462.79 348.432 435.572 349.307 401.654C358.423 390.672 363.93 376.41 363.93 360.823C363.93 345.235 358.423 330.973 349.307 319.991C348.463 287.249 323.321 260.75 291.789 258.952C280.844 248.17 266.01 241.547 249.675 241.547C233.314 241.547 218.459 248.19 207.51 259.002C177.729 261.092 153.821 285.227 151.024 315.7C140.028 327.066 133.229 342.75 133.229 360.07Z"/>
</mask>
<path fill-rule="evenodd" clip-rule="evenodd" d="M133.229 360.07C133.229 377.322 139.974 392.951 150.895 404.306C152.953 435.319 176.843 460.15 206.844 462.593C217.629 472.543 231.871 478.593 247.484 478.593C262.995 478.593 277.153 472.622 287.912 462.789C288.064 462.79 288.216 462.79 288.368 462.79C321.484 462.79 348.432 435.572 349.307 401.654C358.423 390.672 363.93 376.41 363.93 360.823C363.93 345.235 358.423 330.973 349.307 319.991C348.463 287.249 323.321 260.75 291.789 258.952C280.844 248.17 266.01 241.547 249.675 241.547C233.314 241.547 218.459 248.19 207.51 259.002C177.729 261.092 153.821 285.227 151.024 315.7C140.028 327.066 133.229 342.75 133.229 360.07Z" fill="#FFA3A3"/>
<path d="M150.895 404.306L155.884 403.975L155.763 402.155L154.499 400.84L150.895 404.306ZM206.844 462.593L210.234 458.918L208.967 457.749L207.249 457.609L206.844 462.593ZM287.912 462.789L287.95 457.789L285.987 457.774L284.539 459.098L287.912 462.789ZM349.307 401.654L345.459 398.461L344.353 399.794L344.308 401.526L349.307 401.654ZM349.307 319.991L344.308 320.12L344.353 321.852L345.459 323.185L349.307 319.991ZM291.789 258.952L288.28 262.514L289.622 263.837L291.504 263.944L291.789 258.952ZM207.51 259.002L207.86 263.99L209.706 263.86L211.023 262.56L207.51 259.002ZM151.024 315.7L154.618 319.177L155.842 317.911L156.003 316.157L151.024 315.7ZM154.499 400.84C144.453 390.394 138.229 376 138.229 360.07H128.229C128.229 378.645 135.496 395.507 147.291 407.772L154.499 400.84ZM207.249 457.609C179.828 455.376 157.785 432.628 155.884 403.975L145.906 404.637C148.12 438.011 173.858 464.923 206.438 467.576L207.249 457.609ZM247.484 473.593C233.194 473.593 220.146 468.063 210.234 458.918L203.453 466.268C215.111 477.024 230.548 483.593 247.484 483.593V473.593ZM284.539 459.098C274.651 468.135 261.681 473.593 247.484 473.593V483.593C264.309 483.593 279.654 477.11 291.285 466.479L284.539 459.098ZM288.368 457.79C288.229 457.79 288.089 457.79 287.95 457.789L287.874 467.788C288.039 467.79 288.203 467.79 288.368 467.79V457.79ZM344.308 401.526C343.5 432.878 318.629 457.79 288.368 457.79V467.79C324.339 467.79 353.365 438.265 354.305 401.783L344.308 401.526ZM358.93 360.823C358.93 375.216 353.849 388.355 345.459 398.461L353.154 404.848C362.998 392.989 368.93 377.604 368.93 360.823H358.93ZM345.459 323.185C353.849 333.291 358.93 346.429 358.93 360.823H368.93C368.93 344.042 362.998 328.656 353.154 316.797L345.459 323.185ZM291.504 263.944C320.322 265.587 343.528 289.859 344.308 320.12L354.305 319.862C353.397 284.639 326.32 255.913 292.073 253.961L291.504 263.944ZM249.675 246.547C264.623 246.547 278.217 252.6 288.28 262.514L295.298 255.391C283.471 243.739 267.396 236.547 249.675 236.547V246.547ZM211.023 262.56C221.09 252.619 234.703 246.547 249.675 246.547V236.547C231.926 236.547 215.828 243.761 203.997 255.444L211.023 262.56ZM156.003 316.157C158.586 288.007 180.641 265.9 207.86 263.99L207.16 254.014C174.818 256.283 149.055 282.448 146.045 315.243L156.003 316.157ZM138.229 360.07C138.229 344.078 144.502 329.633 154.618 319.177L147.431 312.223C135.554 324.5 128.229 341.422 128.229 360.07H138.229Z" fill="#FF7272" mask="url(#path-5-inside-2)"/>
<path fill-rule="evenodd" clip-rule="evenodd" d="M141.99 359.694C141.99 375.796 148.285 390.382 158.478 400.981C160.399 429.926 182.696 453.102 210.697 455.382C220.763 464.669 234.056 470.316 248.628 470.316C263.105 470.316 276.319 464.743 286.361 455.564C286.502 455.565 286.644 455.566 286.786 455.566C317.694 455.566 342.846 430.162 343.662 398.506C352.171 388.256 357.31 374.945 357.31 360.396C357.31 345.848 352.171 332.537 343.662 322.287C342.875 291.728 319.409 266.995 289.979 265.317C279.764 255.253 265.918 249.072 250.672 249.072C235.403 249.072 221.538 255.272 211.319 265.364C183.523 267.314 161.208 289.841 158.599 318.282C148.335 328.89 141.99 343.528 141.99 359.694Z" fill="white"/>
<mask id="path-8-inside-3" fill="white">
<path fill-rule="evenodd" clip-rule="evenodd" d="M138.34 360.056C138.34 376.653 144.829 391.688 155.334 402.612C157.314 432.447 180.297 456.335 209.159 458.685C219.534 468.258 233.236 474.078 248.256 474.078C263.178 474.078 276.798 468.334 287.148 458.874C287.294 458.875 287.441 458.875 287.587 458.875C319.445 458.875 345.371 432.69 346.211 400.061C354.982 389.496 360.279 375.775 360.279 360.78C360.279 345.784 354.982 332.064 346.211 321.499C345.4 290 321.213 264.508 290.878 262.778C280.349 252.405 266.078 246.034 250.363 246.034C234.624 246.034 220.333 252.424 209.8 262.826C181.15 264.836 158.149 288.055 155.459 317.371C144.88 328.305 138.34 343.393 138.34 360.056Z"/>
</mask>
<path d="M155.334 402.612L169.304 401.685L168.965 396.589L165.425 392.907L155.334 402.612ZM209.159 458.685L218.652 448.396L215.105 445.123L210.295 444.732L209.159 458.685ZM287.148 458.874L287.254 444.874L281.759 444.833L277.703 448.54L287.148 458.874ZM346.211 400.061L335.439 391.119L332.341 394.851L332.216 399.7L346.211 400.061ZM346.211 321.499L332.216 321.859L332.341 326.709L335.439 330.441L346.211 321.499ZM290.878 262.778L281.053 272.751L284.812 276.455L290.081 276.755L290.878 262.778ZM209.8 262.826L210.779 276.791L215.949 276.429L219.636 272.788L209.8 262.826ZM155.459 317.371L165.521 327.105L168.95 323.561L169.4 318.65L155.459 317.371ZM165.425 392.907C157.368 384.53 152.34 372.949 152.34 360.056H124.34C124.34 380.356 132.289 398.846 145.243 412.316L165.425 392.907ZM210.295 444.732C188.655 442.969 170.845 424.911 169.304 401.685L141.365 403.539C143.784 439.984 171.938 469.701 208.022 472.639L210.295 444.732ZM248.256 460.078C236.941 460.078 226.582 455.712 218.652 448.396L199.665 468.975C212.486 480.803 229.53 488.078 248.256 488.078V460.078ZM277.703 448.54C269.793 455.769 259.497 460.078 248.256 460.078V488.078C266.858 488.078 283.802 480.898 296.593 469.208L277.703 448.54ZM287.587 444.875C287.477 444.875 287.366 444.875 287.254 444.874L287.043 472.873C287.223 472.875 287.405 472.875 287.587 472.875V444.875ZM332.216 399.7C331.56 425.149 311.452 444.875 287.587 444.875V472.875C327.439 472.875 359.181 440.232 360.207 400.422L332.216 399.7ZM346.279 360.78C346.279 372.433 342.173 383.007 335.439 391.119L356.983 409.003C367.791 395.984 374.279 379.118 374.279 360.78H346.279ZM335.439 330.441C342.173 338.553 346.279 349.127 346.279 360.78H374.279C374.279 342.442 367.791 325.575 356.983 312.557L335.439 330.441ZM290.081 276.755C312.816 278.052 331.583 297.309 332.216 321.859L360.207 321.138C359.216 282.692 329.61 250.964 291.675 248.801L290.081 276.755ZM250.363 260.034C262.196 260.034 272.993 264.811 281.053 272.751L300.703 252.805C287.705 239.999 269.96 232.034 250.363 232.034V260.034ZM219.636 272.788C227.7 264.825 238.512 260.034 250.363 260.034V232.034C230.736 232.034 212.967 240.023 199.963 252.864L219.636 272.788ZM169.4 318.65C171.494 295.838 189.302 278.298 210.779 276.791L208.82 248.86C172.998 251.373 144.804 280.273 141.517 316.091L169.4 318.65ZM152.34 360.056C152.34 347.112 157.408 335.491 165.521 327.105L145.397 307.636C132.352 321.12 124.34 339.675 124.34 360.056H152.34Z" fill="white" mask="url(#path-8-inside-3)"/>
<path d="M225.333 347.116C232.37 351.947 248.118 358.712 254.816 347.116C251.176 338.939 239.164 326.302 225.333 347.116Z" fill="#F46662"/>
<path d="M257.728 353.806C246.662 366.889 228.852 359.257 221.329 353.806C221.329 377.593 224.969 375.363 239.892 375.363C254.816 375.363 257.364 363.841 257.728 353.806Z" fill="#F46662"/>
<path d="M231.348 317.436L254.391 326.451C225.862 326.451 211.231 345.982 214.158 365.139C221.839 399.319 248.539 393.309 266.827 392.934C218.547 411.714 194.041 383.543 194.041 377.158C193.455 341.7 218.669 322.569 231.348 317.436Z" fill="#F46662"/>
<path d="M271.753 377.613C284.267 346.2 268.237 336.06 258.658 334.916C279.028 371.133 258.658 377.613 238.288 385.238C255.02 389.05 267.388 386.382 271.753 377.613Z" fill="#F46662"/>
<path d="M286.342 447.576C245.769 452.966 207.896 427.866 194.031 414.642C218.258 423.025 272.234 427.616 296.194 428.864C295.707 430.984 293.056 437.696 286.342 447.576Z" fill="#F46662"/>
<path d="M300.304 422.719C242.753 423.321 224.226 412.418 222.157 406.891C275.472 411.79 297.383 388.048 307.973 381.265C315.642 400.107 307.608 411.036 300.304 422.719Z" fill="#F46662"/>
<path d="M276.203 320.968C270.36 313.129 252.101 312.677 243.702 313.431C292.782 328.203 285.819 371.843 276.203 391.816C282.654 388.299 297.456 379.003 305.052 369.959C299.046 345.463 283.506 330.766 276.203 320.968Z" fill="#F46662"/>
<path d="M314.884 380.961C307.895 334.221 267.801 299.565 248.628 288.08C265.01 282.087 309.424 307.18 321.801 316.169C326.17 330.401 321.437 367.478 314.884 380.961Z" fill="#F46662"/>
<path d="M336.728 316.157C303.044 288.74 241.9 272.094 215.539 267.198C241.534 242.718 274.12 257.783 287.3 267.198C327.941 276.99 334.898 300.716 336.728 316.157Z" fill="#FFA2A2"/>
<path d="M292.746 450.26C323.37 414.972 331.026 349.849 331.026 321.699C369.305 348.09 348.89 383.529 337.953 399.364C333.942 440.835 304.413 449.883 292.746 450.26Z" fill="#FFA1A1"/>
<path d="M215.094 455.538C250.675 478.762 273.424 465.215 280.351 455.538C226.687 455.538 190.911 425.126 179.731 409.92C176.814 409.417 169.304 408.11 162.596 406.904C164.419 425 177.543 440.081 191.032 446.867C204.521 453.653 211.448 450.26 215.094 455.538Z" fill="#FFA1A1"/>
<path d="M198.041 271.817C157.389 290.777 161.26 322.351 168.278 335.769C190.781 294.388 223.085 284.984 241.597 280.47C237.604 277.836 212.922 273.698 198.041 271.817Z" fill="#FFA1A1"/>
<path d="M216.78 410.805C177.036 378.848 159.741 341.212 156.061 326.389C135.821 361.06 153.485 393.093 156.061 396.484C158.637 399.876 200.22 408.544 216.78 410.805Z" fill="#FFA1A1"/>
<path d="M239.347 289.408C243.985 290.612 256.015 301.448 261.45 306.716C208.693 300.395 190.431 346.473 187.895 370.302C185.962 367.543 180.431 359.241 173.764 348.103C186.808 301.448 233.55 287.903 239.347 289.408Z" fill="#F46662"/>
</g>
<defs>
<clipPath id="clip0">
<rect width="574" height="574" fill="white"/>
</clipPath>
</defs>
</svg>
