<?xml version="1.0" encoding="UTF-8" standalone="no"?>
<svg id="svg4429" xmlns:rdf="http://www.w3.org/1999/02/22-rdf-syntax-ns#" xmlns="http://www.w3.org/2000/svg" height="200.1mm" width="210mm" version="1.1" xmlns:cc="http://creativecommons.org/ns#" xmlns:xlink="http://www.w3.org/1999/xlink" viewBox="0 0 744.09649 709.01041" xmlns:dc="http://purl.org/dc/elements/1.1/">
<defs id="defs4431">
<linearGradient id="ad" y2="19463" gradientUnits="userSpaceOnUse" y1="94424" x2="3.969e5" x1="3.3027e5">
<stop id="stop15" stop-color="#22280B" offset="0"/>
<stop id="stop17" stop-color="#556906" offset=".52941"/>
<stop id="stop19" stop-color="#8a0" offset="1"/>
</linearGradient>
<linearGradient id="af" y2="2.617e5" gradientUnits="userSpaceOnUse" y1="2.449e5" x2="4.561e5" x1="3.7159e5">
<stop id="stop27" stop-color="#22280B" offset="0"/>
<stop id="stop29" stop-color="#89A02C" offset="1"/>
</linearGradient>
<linearGradient id="ae" y2="2.965e5" gradientUnits="userSpaceOnUse" y1="3.9575e5" x2="3.1926e5" x1="3.8257e5">
<stop id="stop22" stop-color="#8a0" offset="0"/>
<stop id="stop24" stop-color="#222B00" offset="1"/>
</linearGradient>
<linearGradient id="b" y2="4.3226e5" gradientUnits="userSpaceOnUse" y1="3.433e5" x2="2.5859e5" x1="2.3544e5">
<stop id="stop9" stop-color="#22280B" offset="0"/>
<stop id="stop11" stop-color="#8a0" offset="1"/>
</linearGradient>
<linearGradient id="t" y2="4.1825e5" xlink:href="#b" gradientUnits="userSpaceOnUse" y1="3.2943e5" x2="57506" x1="86108"/>
<linearGradient id="linearGradient4333">
<stop id="stop4335" stop-color="#f00" offset="0"/>
<stop id="stop4337" stop-color="#f00" stop-opacity=".2" offset="1"/>
</linearGradient>
<linearGradient id="linearGradient5366" y2="4.3226e5" xlink:href="#b" gradientUnits="userSpaceOnUse" x2="2.5859e5" y1="3.433e5" x1="2.3544e5"/>
<radialGradient id="radialGradient4365" xlink:href="#linearGradient4333" gradientUnits="userSpaceOnUse" cy="3.2003e5" cx="8.1376e5" gradientTransform="matrix(1 0 0 .85429 -7.4748e5 46630)" r="44166"/>
<radialGradient id="radialGradient4363" xlink:href="#linearGradient4333" gradientUnits="userSpaceOnUse" cy="3.2999e5" cx="8.6675e5" gradientTransform="matrix(1 0 0 .63084 -7.4748e5 1.2182e5)" r="64272"/>
<radialGradient id="radialGradient4361" xlink:href="#linearGradient4333" gradientUnits="userSpaceOnUse" cy="2.9055e5" cx="9.755e5" gradientTransform="matrix(1 0 0 .61433 -7.4748e5 1.1206e5)" r="1.0549e5"/>
<radialGradient id="radialGradient4359" xlink:href="#linearGradient4333" gradientUnits="userSpaceOnUse" cy="2.8363e5" cx="1.0638e6" gradientTransform="matrix(1 0 0 .98831 -7.4748e5 3316.8)" r="65067"/>
<radialGradient id="radialGradient4357" xlink:href="#linearGradient4333" gradientUnits="userSpaceOnUse" cy="2.2491e5" cx="8.3739e5" gradientTransform="matrix(1 0 0 1.1008 -7.4748e5 -22673)" r="87471"/>
<radialGradient id="radialGradient4355" xlink:href="#linearGradient4333" gradientUnits="userSpaceOnUse" cy="1.1655e5" cx="8.2235e5" gradientTransform="matrix(1 0 0 1.2181 -7.4748e5 -25418)" r="57804"/>
<radialGradient id="radialGradient4353" xlink:href="#linearGradient4333" gradientUnits="userSpaceOnUse" cy="47160" cx="9.5944e5" gradientTransform="matrix(1 0 0 .45202 -7.4748e5 25843)" r="94364"/>
<radialGradient id="radialGradient4351" xlink:href="#linearGradient4333" gradientUnits="userSpaceOnUse" cy="1.3601e5" cx="1.0718e6" gradientTransform="matrix(1 0 0 1.6749 -7.4748e5 -91798)" r="61571"/>
<radialGradient id="radialGradient4349" xlink:href="#linearGradient4333" gradientUnits="userSpaceOnUse" cy="1.6448e5" cx="1.0507e6" gradientTransform="matrix(1 0 0 1.7722 -7.4748e5 -1.27e5)" r="57707"/>
<radialGradient id="radialGradient4347" xlink:href="#linearGradient4333" gradientUnits="userSpaceOnUse" cy="2.0946e5" cx="9.4386e5" gradientTransform="matrix(1 0 0 .71621 -7.4748e5 59443)" r="1.2536e5"/>
<radialGradient id="radialGradient4345" xlink:href="#linearGradient4333" gradientUnits="userSpaceOnUse" cy="1.6397e5" cx="9.2702e5" gradientTransform="matrix(1 0 0 1.0201 -7.4748e5 -3290)" r="98002"/>
<radialGradient id="radialGradient4343" xlink:href="#linearGradient4333" gradientUnits="userSpaceOnUse" cy="1.798e5" cx="9.3925e5" gradientTransform="matrix(1 0 0 .68563 -7.4748e5 56523)" r="70789"/>
<radialGradient id="radialGradient4341" xlink:href="#linearGradient4333" gradientUnits="userSpaceOnUse" cy="1.339e5" cx="9.5233e5" gradientTransform="matrix(1 0 0 1.0288 -7.4748e5 -3857)" r="73358"/>
<radialGradient id="radialGradient4339" xlink:href="#linearGradient4333" gradientUnits="userSpaceOnUse" cy="1.3192e5" cx="9.5302e5" gradientTransform="matrix(1 0 0 .92775 -7.4748e5 9531.8)" r="57551"/>
</defs>
<g id="layer1" transform="translate(-19.38 -137.86)">
<g id="g5416" transform="matrix(.0016054 0 0 .0016054 19.38 137.85)">
<path id="path85" class="fil0" d="m21371 3.2259e5c-498-4116-2336-9020-1359-12349 2981-10158 12969-13858 20625-32110-9405-13890-15516-22590-23535-30370-7259-7040-16119-13450-16968-21030-975-8711 2970-4932 25189-35538-7075-5839-13500-19417-12664-29849 1662-20761 16513-48585 22354-67489 4030-13040-1171-17258 2166-30606 10628 464 25694 3428 36995 639 20199-4987 35269-17624 40562-19411 10004-3378 16658-54 24205 1482 43954-11568 56811-46630 82992-45942 20197 531 23876 31583 38531 33098 18304-12753 34761 2210 51869 7410 2280-8922 5718-16493 15808-16302 0 0 10537-11872 17784-12844 2789-374 7904 2964 7904 2964s8274-6939 13338-7410c2592-241 6422 988 6422 988 4008-4361 11167-3996 17784-4446 9880-847 17942-1953 23217-3458-742 5474-2497 10442 494 17784 3492 7307 3035 12921 1976 18278-325 9393-434 19220-3952 22229 1551 6752 2422 13503-4446 20254 3029 10664-26529 35355-31615 36062-3328 17019-2062 33528 494 49893 5436 17290 17737 25218 14819 31122-3372 6825-18769 14494-28157 21736 1162 3361 3467 5009 5928 6421 6295-22118 33390-18431 41001-15807 9020-3863 13147-657 16302 3951 12588 5563 24786 9567 36062 9880-8432 9494-19105 18172-20748 30134 202 4326-4245 12354-10374 16302-1655 4935-2355 10416-8398 12844-5170 4731-8968 10378-19760 11361-3487 2905-5239 6098-12350 8398 4017 2412 7630 5390 8398 12350 7667 7584 8719 15247 7904 21242 3663 4775 5558 9551 5928 14326 1131 7983 1779 15885-988 23218 4085 21045-2100 31326-9386 41495-2330-2626-3795-5541-9880-6916-8854 1047-16004-891-22229-4446-7094 210-18372-990-24206-5187-13958 2707-17885-3846-23712-8645-11996-3823-19617-11657-23712-22723-4880-3788-7355-7575-10374-11362 1457 4758 3780 10094 1482 12350 1249 5598 1503 11197-2469 16795 1677 5896 3632 11745 1482 18278 2887 7284 729 13792-4940 19760 319 5250-820 11715-4446 20254-9083-12040-26639-20054-44213-30134-6439-2344-10155-6322-13337-10621-10057-6174-16053-12103-14573-18524-5864-3969-8173-18961-2964-23712-5621 93-9995-437-14326-988-13053 10479-33229 16848-60267 18772-2294 163-3601-1515-4940-2964-2130 2366-2909 4855-8398 6916-3164 19816-17694 25368-27170 26182-9987 7662-19485 10430-28157 4939-1929 1199-3713 8590-20254 5928-5834 2656-10699 6989-21242 1482 660-5861 2964-11065-988-18771-5471-23223-1790-23149-494-29146-4898-7082-5969-14324-2964-21736-799-10050-458-19561 4940-26676z"/>
<path id="path87" d="m3.148e5 41753c2771-6218 3532-13873 15066-13832 6176-3798 12998-14049 18525-11362 10851 4677 16925-9392 27664-4199 4901-7603 24645-2840 34580-7904-399 4448-2920 8543 247 13585 1279 9215 2456 13882 247 18278 328 7376 1107 15023-1730 20501 2127 8679 1078 15770-4693 20501-234 14307-17189 21449-25934 32109 4579-10435 7317-25186 6668-52610-31720 3382-50609-1247-70641-15067h1z" class="fil1" fill="url(#ad)"/>
<path id="path89" d="m3.7161e5 2.2502e5c8567-13817 20512-20153 38284-13585 8225-2691 13162 256 16796 5434 4842 787 22320 6454 29393 7410-9487 7986-13634 15354-15808 23958-1840 7283-8274 10509-11115 17043-4928 11337-6602 7930-8645 11362-3950 6635-8537 11862-18031 13091-5351 3497-10703 9596-16054 7657-1153-4117-3623-8563-7410-13338 5968-8023 6407-20133 6830-30829 420-10627 847-19854-162-23263-602-2038-7413-4083-14078-4940z" class="fil2" fill="url(#af)"/>
<path id="path91" d="m3.7598e5 2.8709e5c4625 5531 9214 11061 10653 16592 9085 3486 9723 8849 10654 14147 1875 3444 4704 2832 4890 13448 7755 15333 5596 17837 5939 23578 1314 5451 3354 9863 1572 19736-323 9959 1538 19322-3493 30565-6339-1416-13681-322-18339-5938-5332 3041-10970 1483-16767-2446-7277 2395-14554 8-21831-2619-10807 1119-15736-4174-21657-8384-8166-5220-17958-5153-22705-21482-8685-3724-9911-8691-13448-13274 18475-6363 38350-26605 52920-31612 16444 1606 24846-13638 31612-32311z" class="fil3" fill="url(#ae)"/>
<path id="path93" d="m2.4953e5 3.4036e5c6291 4017 27014 7542 35630 12401 2840 4308 2027 8616 1746 12924-443 5117 2629 9356-2794 15719 3308 8500 2340 14329 2096 20609 227 5997-371 11993-3843 17989 409 5342-657 10315-2096 15195-4860-3467-9757-9158-14989-12413-9875-6143-20044-9874-27102-17627-4718-1329-9713-1365-13099-8907-4472-1892-9006-3127-12575-14497-4056-5883-7433-12299-5065-23229 12161 1188 15260 434 21482 350 10406-3126 15560-12686 20609-18513v-1z" class="fil4" fill="url(#linearGradient5366)"/>
<path id="path95" d="m21605 3.2954e5c-753 5510-2784 9559-524 18513-2177 6125-3409 14311 1222 22705-2256 5852-1468 20634 1223 26198 2465 7623 2189 14149 0 19911 8248 3484 11811-1060 17116-2620 10482 1702 16910-1327 21832-6113 9724 5904 18612 943 27420-5065 13845-1961 20489-8820 22705-18688 3363-1581 2043-3747 1921-5763 7626-933 7407-5787 9956-9257-791-7083-5983-10742-10829-14671-16824 5355-25611 6627-36852 5589-16208-1497-24866-10961-37026-16592-6862-1534-8423 1515-11353-524-6577-4577-4664-8620-6811-13623z" class="fil5" fill="url(#t)"/>
<g>
<path id="path97" d="m42271 2.823e5c2908 2374 3635 4202 9880 7410 3076 46326 42611 38271 58292 61256-8754 120-15562 3482-23043 5723-22983 6884-40030-21781-60268-18278 1489-10477-6917-25097-4620-30423 1225-2840 5767-5242 9747-9784 4059-4632 7568-11420 10012-15904z" class="fil6" fill="url(#radialGradient4365)"/>
<path id="path99" d="m55002 2.8944e5c525 47975 55527 34535 73354 80690 21350 1905 41496-2999 55191-13972-28948 565-56876-17690-63574-38773-21385-12000-49056-23180-64968-27940v-1z" class="fil7" fill="url(#radialGradient4363)"/>
<path id="path101" d="m1.2254e5 3.1911e5c16730 40915 96357 39283 1.1164e5 32604 5797-2534 14456-19851 29840-32906 11984-10170 28967-20381 44785-16363 2045 520 4600 2141 6390 857 1919-1376 961-4601 1561-6846 6752-25255 22621-46002 14494-70711-29208 60900-43326 42299-68414 41945-4824-68-10529 539-16306 2515-8734 2987-15781 10141-21577 15170-14591 12659-23217 20012-35529 17980-2853-471-5305-2739-8348-2769-3990-40-7242 3383-10603 5744-13851 9731-25746 24492-47936 12781v-1z" class="fil8" fill="url(#radialGradient4361)"/>
<path id="path103" d="m2.5123e5 3.3566e5c33733 17671 40664 14039 54276 3072 6785-5467 19084-14140 28596-19819 2300-1373 4257-3089 6294-3507 2358-483 4601-79 6607-393 19082-2991 20143-22132 25008-31223 9794-18299 10469-55109 8398-52610-1945 2347-22512-9974-20254-11856-6845 4969-14020 10763-23465 22230-1203 16093-15069 41365-18278 61255-229 1424-2265 2176-3713 2621-2206 680-4801 512-6924-119-19424-5776-40768 15012-56546 30349h1z" class="fil9" fill="url(#radialGradient4359)"/>
<path id="path105" d="m1.7738e5 2.9935e5c-15539-5973-31092-11257-47918-21735-13201-32794-46237-42589-61502-50388-11376-5811 14277-21827 26429-33591-14053-14647-22572-32690-7904-64961-21790-1626-38156 30990-55597 59760-7267 11987-15538 22491-23162 30874-1641 1804-3839 3020-4973 4954-997 1700 530 4115 2286 6625 4882 6979 16637 16561 28495 30995 4772 5809 7104 14530 13925 19930 9160 7252 20902 9508 33022 13764 9611 3374 21662 8391 33169 13663 8736 4003 16272 10975 23963 11846 14022 1587 26528-14474 39767-21736z" class="fil10" fill="url(#radialGradient4357)"/>
<path id="path107" d="m24982 1.8696e5c19002-22198 33562-57719 59032-60514 226-19030-629-17518-988-25441 11033 1317 22065-1647 33098-8892-5675-16475 4740-31162 16548-45694-29080-4038-55909 37605-93859 19512 10986 41795-40889 83396-13831 1.2103e5z" class="fil11" fill="url(#radialGradient4355)"/>
<path id="path109" d="m1.177e5 89814c-2225-40343 31910-41360 59719-58222 3621-2196 32511-28701 46296-27009 8922 1095 14115 12672 19212 18934 14993 18424 58367 35256 63398 56341-11127-1612-35162-23593-38772-22356-5824 1997-10148 2358-20784 9606-11032-18325-23821-9850-36677-349-10524-3467-21907-9658-27072 3842-25754-23118-44857 3089-65320 19212v1z" class="fil12" fill="url(#radialGradient4353)"/>
<path id="path111" d="m3.355e5 2.3914e5c6169-8175 13149-15614 20930-22324 8776-7569 28586-15930 29370-19942 1244-6362-9345-18212-11530-27816-3713-16316-6703-34239-1248-50925 7572-23164 9084-41266 7888-58536-44323 14281-93528-40973-1.1815e5 -23114 29008 18692 47570 35288 45145 45120 9142 2134 21977 4752 31924 6513 13947 2470 23886 4688 24664 14096 422 5111 208 10396-1098 15533-2767 10892-6460 19593-8245 29888-1861 10730-2980 17442 2031 27481 1228 2459 4920 6958 4867 10233-179 10969-18029 26057-29692 38424 2849 5573 2831 10430 3144 15369z" class="fil13" fill="url(#radialGradient4351)"/>
<path id="path113" d="m2.4901e5 70874c4208-4357 10942-8962 19266-8645 3442 131 7728 4582 11124 6764 9236 5935 19013 11554 32924 16206 21738 7270 44819 6465 47588 17291 4341 16976-5997 32829-8245 46504-2733 16626 4143 29692 4539 39204 470 11260-14438 21175-24497 31525-11921 15348-17898 41253-35770 46032-7259 1941-15209-326-22727-403-9783-99-19267 101-27660 1391 12095-10115 31069-17728 49253-25628 4154-1806 8903-2641 12249-5494 3768-3214 5049-8039 6612-12086 9302-24081-2352-48139 6869-71242 1577-3951 4220-7411 5043-12260 748-4397-350-9084-5864-11424-6773-2874-16725-858-23882-2900-8715-2487-13449-5945-18418-8400-1211-5086 6161-26404 2964-29145-9272-7952-20468-11225-31369-17290h1z" class="fil14" fill="url(#radialGradient4349)"/>
<path id="path115" d="m2.7716e5 1.1968e5c-3295 12783-3350 31508-4891 47506 2022 7972 16151 20784 2154 38821-1855 2390-5916 6864-9062 9323-15100 11800-32240 25950-51990 41990-3858 3132-10738 6336-14522 9609-18915 73-34451-27187-73111-24271-2899-17599-8660-32343-27775-45428-4322 2386-40869 23707-21127 31332 17603 6867 42159 18210 54661 43769 1637 4763 37015 28846 66036 26791 8485-600 15788-8547 22338-13517 4133-3136 9995-7878 12768-10632 17528-17408 27654-21220 42422-28141 34575-10306 38153-25778 39821-41568 167-17413-3266-22665 949-46000 1195-6618 7105-14441 5688-24909-694-5132-9808-3455-15709-4258-8862-1206-18899-2482-28653-10413h1z" class="fil15" fill="url(#radialGradient4347)"/>
<path id="path117" d="m2.6843e5 1.6718e5 -5240 3493c9267 32368-44346 52567-73679 59866-7349 1828-15258 2384-17839 2660-6157-10133-16279-19698-26848-24557-7874-3620-19109-1552-20308-5484-12401-40644-5145-62430 11876-74053-747-17677-858-25868 6508-28815 20937-12441 29848-19915 38203-28122-14589-8771-19734-12566-35491-630-22697 17099-40494 33807-59171 32417 1600 9227 2382 16209 3102 24427-17647 29750-2297 59115 9473 65345 21260 12560 27920 30100 30220 46810 27151-6779 52970 22773 66543 23404 4152 31 20662-12097 33658-22695 13060-10651 25380-19790 34021-27534 5269-4698 7659-9674 11614-14044 3341-3692 5047-13961-6637-32485z" class="fil16" fill="url(#radialGradient4345)"/>
<path id="path119" d="m1.3638e5 1.3126e5c-5467 4199-11582 11761-14062 22481-4543 19631 3727 47341 6898 47605 24111 5747 33812 17038 43967 26984 48132-659 98634-36885 87931-57180-7819 5664-15691 11261-22230 18525-15483-10971-41145 23182-56562 24946-37162-11209-37772-40065-56562-60143 5442-6246 9260-15433 10620-23218z" class="fil17" fill="url(#radialGradient4343)"/>
<path id="path121" d="m2.6458e5 1.5077e5c2712-4991 0-17932-590-28843-326-6004 1207-8957 1780-15348 397-4425-422-9833 872-14427-6691 474-14483-7491-21070-12283-1603-1167-2887-3098-4833-3464-1641-309-3168 1181-4752 1919-5348 2494-10696 5962-16044 8889l-14030-10059c-2073-681-4581 99-6677-44-3596-246-6703-812-9539 1201-12397 8800-19089 33460-20031 44418-10521-1648-20307 1973-26913 28384 5783 1840 13811-47 16980 2595 2013 1853 3617 8452 3617 8452l3649 14438c7405 9898 19271 14655 41765 7167 27872-5449 35221-16012 47110-18337l7647-11640c3009 1190 3401 6494 4208 11144-6532 3540-18499 12969-28641 20419-6672-1108-14715 950-24439 6505-11338 6478-24249 16735-29005 17248-19483 3387-42102-25987-54142-54492 0 0 5065-11597 7922-25402 2221-10730-1597-16655 2740-23317 2775-4262 16109-12586 23405-17913 8727-6373 16378-12576 20665-16517 2387-2193 3212-4014 3640-4118 3822-928 13864 2691 20665 1492 8259-1456 12722-10496 21107-10408 6895 72 9262 9613 16475 14904 8129 5964 18923 8974 25613 13496 1856 1255 4663 2302 4476 4209l-632 6443c-4650 21562-4552 45498-6704 68309l-6287-15020z" class="fil18" fill="url(#radialGradient4341)"/>
<path id="path123" d="m2.2047e5 90576c4547-3257 9341-6209 13180-8536 2609-1580 4253-3092 6713-3509 6875 6061 15559 13129 22724 17784-1426 16998-1274 35047-741 53351-12980 15950-34220 27640-53090 32770l6-2c-3191-5416-11118-8245-19340-10940 2929-1572 9073-2267 17116-2445-8462-248-12730-4430-36458 6977-2671-7407-6492-15103-6785-21915-4489-5193-10432-4081-15808-5434 1331-22028 13419-23822 21566-23950-845 31496 15607 35171 25887 36613 3572 2796 7211 5240 10288 7098-9550-7229-24744-19877-26110-30739-1425 7659 6951 16686 15752 23586-19390-3588-25578-21062-23462-41966v-1c3178-11022 11491-35450 23750-39800 5648-2005 13379 3006 18457 7121 10036 9864 22270 25931 23902 37333-870-8585-3314-20994-17546-33397zm-13989 92571c-263 63-524 124-786 185 262-61 523-122 786-185zm-1599 369c-15736 3488-29158 2069-33678-5692l-158-469c16551-8154 31609-1434 33836 6161zm29799-75844s14669-1295 19019 3458c5778 6312 264 17264 2347 25564 848 3382 4083 6252 2840 9509-3671 9625-18453 18485-31539 22133-9301 2594-18601 1332-18601 1332s8775 2621 17944 388c13626-3318 29912-13027 34048-22988 1405-3382-2102-6051-2840-10251-1524-8666 3841-19928-2223-26305-4870-5120-21000-2850-21000-2850zm-42853 25070c6795-14639 21126-12105 28528-11362 4343 12928-8511 22675-16549 23588 4487 906 24879-2663 16796-27663-13191 1721-28522 1409-28775 15437zm5682 2384c5115-6906 12317-4048 16098-2866 879 7208-6870 10914-11161 10528 2244 954 13262 1279 11727-12628-7065-516-15027-2323-16664 4966zm-5312-11029c4926-6985 6547-14285 13462-20748 1830-1711 9218 1073 17290 1725 1184 95 2595-553 3581 128 2582 1784 2590 4261 3467 6763 3432 9796-1570 20913-6555 25099 557 51 8820-13579 5286-21010-1182-2486 1465-5130-3680-7394-433-191-9836-2624-16302-4323-7755 5563-11369 12588-16549 19760zm24633-35135c178 160 348 314 509 462-162-148-331-302-509-462zm15531 32233c19472 25641-2265 23648-21133 23579 14026-2349 32511-1175 21133-23579zm-35292 28729c14249-5574-1641-5873-10366-8381-1573-1523-2976-3048-4181-4559-7122-8932-128-38072 17877-29936-14178-17433-49546 30918 12893 54229 1523 569 3677 1899 5228 1137 6389-3143 11637-6995 15806-8559 0 0 15311-1255 17945-7160 1171-2627-3914-4418-2620-6987 3099-6149-116-14489-3493-13099h1c1531-437 4960 7672 1571 13274-1239 2050 4031 4237 3144 6462-2325 5837-11923 4032-17640 6637-5238 2387-15194 8209-15194 8209-1773 957-4044-1487-4781-1847-5782-2824-11299-6033-16190-9420zm-10037-8064c7918 3048 16508 3256 9885 7959-3713-2581-7061-5265-9885-7959zm16686 9550c4075-916 8150-2743 12226-1048-2693-1340-5437-2618-12226 1048z" class="fil19" fill="url(#radialGradient4339)"/>
</g>
<g fill="#222b00">
<path id="path125" class="fil20" d="m3.6519e5 58796c13845-11420 31378-20628 36062-37544-1404 11182-12485 24141-30011 38284l-6051-740z"/>
<path id="path127" class="fil20" d="m3.463e5 56202c-580-9854-6547-11628-10745-16055 4117 4879 9840 8954 9016 16302l1729-247z"/>
<path id="path129" class="fil20" d="m3.6778e5 57190c-579-9854-3705-29659-9138-32974 4857 4507 7122 27601 6298 34950l2840-1976z"/>
<path id="path131" class="fil20" d="m3.8285e5 16189c6091 6884 2721 15919 2100 24329 181-8403 1443-17167-2100-24329z"/>
<path id="path133" class="fil20" d="m3.9051e5 52497c6617 5458 13406 10848 11362 19513 3117-11404-4622-15104-11362-19513z"/>
<path id="path135" class="fil20" d="m3.8606e5 64724c4655 7079 6168 14945 5558 23341 1136-8777 1117-17168-5558-23341z"/>
<path id="path137" class="fil20" d="m3.8544e5 2.5936e5c13518-17935 33424-30547 62737-35320-21816 2960-43504 7172-62737 35320z"/>
<path id="path139" class="fil20" d="m3.9922e5 2.3966e5c2624-8963 9051-17711 13869-24131-5502 5220-11476 10981-13869 24131z"/>
<path id="path141" class="fil20" d="m3.8742e5 2.3174e5c366-3624 2205-7437 3593-10243-1736 2395-3615 5031-3593 10243z"/>
<path id="path143" class="fil20" d="m4.1655e5 2.3944e5c7124 2883 16051 3202 22654 3370-6178 886-12946 1799-22654-3370z"/>
<path id="path145" class="fil20" d="m4.0329e5 2.519e5c5915 4906 14325 7915 20566 10077-6155-1028-12882-2209-20566-10077z"/>
<path id="path147" class="fil20" d="m3.8705e5 2.6719e5c5915 4906 14325 7916 20566 10077-6155-1028-12882-2209-20566-10077z"/>
<path id="path149" class="fil20" d="m3.4765e5 3.2012e5c46739 34683 51918 53061 53352 64961-1111-11587-14594-35328-58292-64961h4940z"/>
<path id="path151" class="fil20" d="m3.6037e5 3.1888e5c11536-9057 22879-6325 34086 4693-9790-7852-20376-12517-34086-4693z"/>
<path id="path153" class="fil20" d="m3.8186e5 3.3963e5c8988 3683 17233 8223 21983 16796-3491-9801-11595-14549-21983-16796z"/>
<path id="path155" class="fil20" d="m3.8075e5 3.6236e5c-801 8933-819 17866 1976 26799-1613-8933-2001-17866-1976-26799z"/>
<path id="path157" class="fil20" d="m3.605e5 3.4124e5c-12637 15149-12664 29712-11362 44212-3841-24321 2467-35893 11362-44212z"/>
<path id="path159" class="fil20" d="m3.4e5 3.3e5c-12543 3856-17762 9728-17290 25318 402-10316 3807-19580 17290-25318z"/>
<path id="path161" class="fil20" d="m2.4027e5 3.5172e5c-2038 29263 26315 56080 31787 65495-12115-10847-39884-47181-31787-65495z"/>
<path id="path163" class="fil20" d="m2.4516e5 3.4962e5c11931-2038 23556-3034 30914 10479-9995-12176-20468-10955-30914-10479z"/>
<path id="path165" class="fil20" d="m2.5075e5 3.7215e5c16989 5243 20452 14995 26897 23753-6479-8942-5912-20784-26897-23753z"/>
<path id="path167" class="fil20" d="m2.4446e5 3.9066e5c-87 4483 561 8966 2795 13449-3952-4181-3392-8813-2795-13449z"/>
<path id="path169" class="fil20" d="m2.3556e5 3.594e5c-8148 5040-9764 14534-7684 26548-625-13997 2258-22326 7684-26548z"/>
<path id="path171" class="fil20" d="m73734 3.6063e5c-2419 16483-13189 33662-39272 52116 13172-6912 37091-23214 42236-51375l-2964-741z"/>
<path id="path173" class="fil20" d="m76451 3.673e5c3892 9156 14219 21194 3211 38038 17294-17101-1794-32794-3211-43225v5187z"/>
<path id="path175" class="fil20" d="m99669 3.6038e5c10231 2212 6994 11158 7410 18278-45-8077-276-16002-7410-18278z"/>
<path id="path177" class="fil20" d="m60397 3.7396e5c-9043 5147-17996 11199-28158 17537 11956-5200 20047-11744 28158-17537z"/>
<path id="path179" class="fil20" d="m67065 3.5865e5c-8736 27-17115 2197-25193 6175 7429-5032 15470-8186 25193-6175z"/>
</g>
</g>
</g>
</svg>
